<svg width="875" height="56" viewBox="0 0 875 56" fill="none" xmlns="http://www.w3.org/2000/svg">
<g opacity="0.5" filter="url(#filter0_d_40000066_44958)">
<rect x="11.4035" y="10.7121" width="160.068" height="34.3069" rx="7.74497" fill="white"/>
<rect x="11.4035" y="10.7121" width="160.068" height="34.3069" rx="7.74497" stroke="#C0C0C0" stroke-width="0.510067"/>
<path d="M23.5494 29.4702H20.8134L20.3094 30.8652H19.4454L21.7134 24.6282H22.6584L24.9174 30.8652H24.0534L23.5494 29.4702ZM23.3154 28.8042L22.1814 25.6362L21.0474 28.8042H23.3154ZM26.5539 24.2052V30.8652H25.7349V24.2052H26.5539ZM28.5977 24.2052V30.8652H27.7787V24.2052H28.5977ZM30.8216 26.6082V29.5152C30.8216 29.7552 30.8726 29.9262 30.9746 30.0282C31.0766 30.1242 31.2536 30.1722 31.5056 30.1722H32.1086V30.8652H31.3706C30.9146 30.8652 30.5726 30.7602 30.3446 30.5502C30.1166 30.3402 30.0026 29.9952 30.0026 29.5152V26.6082H29.3636V25.9332H30.0026V24.6912H30.8216V25.9332H32.1086V26.6082H30.8216ZM32.6239 28.3812C32.6239 27.8772 32.7259 27.4362 32.9299 27.0582C33.1339 26.6742 33.4129 26.3772 33.7669 26.1672C34.1269 25.9572 34.5259 25.8522 34.9639 25.8522C35.3959 25.8522 35.7709 25.9452 36.0889 26.1312C36.4069 26.3172 36.6439 26.5512 36.7999 26.8332V25.9332H37.6279V30.8652H36.7999V29.9472C36.6379 30.2352 36.3949 30.4752 36.0709 30.6672C35.7529 30.8532 35.3809 30.9462 34.9549 30.9462C34.5169 30.9462 34.1209 30.8382 33.7669 30.6222C33.4129 30.4062 33.1339 30.1032 32.9299 29.7132C32.7259 29.3232 32.6239 28.8792 32.6239 28.3812ZM36.7999 28.3902C36.7999 28.0182 36.7249 27.6942 36.5749 27.4182C36.4249 27.1422 36.2209 26.9322 35.9629 26.7882C35.7109 26.6382 35.4319 26.5632 35.1259 26.5632C34.8199 26.5632 34.5409 26.6352 34.2889 26.7792C34.0369 26.9232 33.8359 27.1332 33.6859 27.4092C33.5359 27.6852 33.4609 28.0092 33.4609 28.3812C33.4609 28.7592 33.5359 29.0892 33.6859 29.3712C33.8359 29.6472 34.0369 29.8602 34.2889 30.0102C34.5409 30.1542 34.8199 30.2262 35.1259 30.2262C35.4319 30.2262 35.7109 30.1542 35.9629 30.0102C36.2209 29.8602 36.4249 29.6472 36.5749 29.3712C36.7249 29.0892 36.7999 28.7622 36.7999 28.3902ZM40.8749 25.8522C41.3009 25.8522 41.6729 25.9452 41.9909 26.1312C42.3149 26.3172 42.5549 26.5512 42.7109 26.8332V25.9332H43.5389V30.9732C43.5389 31.4232 43.4429 31.8222 43.2509 32.1702C43.0589 32.5242 42.7829 32.8002 42.4229 32.9982C42.0689 33.1962 41.6549 33.2952 41.1809 33.2952C40.5329 33.2952 39.9929 33.1422 39.5609 32.8362C39.1289 32.5302 38.8739 32.1132 38.7959 31.5852H39.6059C39.6959 31.8852 39.8819 32.1252 40.1639 32.3052C40.4459 32.4912 40.7849 32.5842 41.1809 32.5842C41.6309 32.5842 41.9969 32.4432 42.2789 32.1612C42.5669 31.8792 42.7109 31.4832 42.7109 30.9732V29.9382C42.5489 30.2262 42.3089 30.4662 41.9909 30.6582C41.6729 30.8502 41.3009 30.9462 40.8749 30.9462C40.4369 30.9462 40.0379 30.8382 39.6779 30.6222C39.3239 30.4062 39.0449 30.1032 38.8409 29.7132C38.6369 29.3232 38.5349 28.8792 38.5349 28.3812C38.5349 27.8772 38.6369 27.4362 38.8409 27.0582C39.0449 26.6742 39.3239 26.3772 39.6779 26.1672C40.0379 25.9572 40.4369 25.8522 40.8749 25.8522ZM42.7109 28.3902C42.7109 28.0182 42.6359 27.6942 42.4859 27.4182C42.3359 27.1422 42.1319 26.9322 41.8739 26.7882C41.6219 26.6382 41.3429 26.5632 41.0369 26.5632C40.7309 26.5632 40.4519 26.6352 40.1999 26.7792C39.9479 26.9232 39.7469 27.1332 39.5969 27.4092C39.4469 27.6852 39.3719 28.0092 39.3719 28.3812C39.3719 28.7592 39.4469 29.0892 39.5969 29.3712C39.7469 29.6472 39.9479 29.8602 40.1999 30.0102C40.4519 30.1542 40.7309 30.2262 41.0369 30.2262C41.3429 30.2262 41.6219 30.1542 41.8739 30.0102C42.1319 29.8602 42.3359 29.6472 42.4859 29.3712C42.6359 29.0892 42.7109 28.7622 42.7109 28.3902ZM46.498 30.9462C46.12 30.9462 45.781 30.8832 45.481 30.7572C45.181 30.6252 44.944 30.4452 44.77 30.2172C44.596 29.9832 44.5 29.7162 44.482 29.4162H45.328C45.352 29.6622 45.466 29.8632 45.67 30.0192C45.88 30.1752 46.153 30.2532 46.489 30.2532C46.801 30.2532 47.047 30.1842 47.227 30.0462C47.407 29.9082 47.497 29.7342 47.497 29.5242C47.497 29.3082 47.401 29.1492 47.209 29.0472C47.017 28.9392 46.72 28.8342 46.318 28.7322C45.952 28.6362 45.652 28.5402 45.418 28.4442C45.19 28.3422 44.992 28.1952 44.824 28.0032C44.662 27.8052 44.581 27.5472 44.581 27.2292C44.581 26.9772 44.656 26.7462 44.806 26.5362C44.956 26.3262 45.169 26.1612 45.445 26.0412C45.721 25.9152 46.036 25.8522 46.39 25.8522C46.936 25.8522 47.377 25.9902 47.713 26.2662C48.049 26.5422 48.229 26.9202 48.253 27.4002H47.434C47.416 27.1422 47.311 26.9352 47.119 26.7792C46.933 26.6232 46.681 26.5452 46.363 26.5452C46.069 26.5452 45.835 26.6082 45.661 26.7342C45.487 26.8602 45.4 27.0252 45.4 27.2292C45.4 27.3912 45.451 27.5262 45.553 27.6342C45.661 27.7362 45.793 27.8202 45.949 27.8862C46.111 27.9462 46.333 28.0152 46.615 28.0932C46.969 28.1892 47.257 28.2852 47.479 28.3812C47.701 28.4712 47.89 28.6092 48.046 28.7952C48.208 28.9812 48.292 29.2242 48.298 29.5242C48.298 29.7942 48.223 30.0372 48.073 30.2532C47.923 30.4692 47.71 30.6402 47.434 30.7662C47.164 30.8862 46.852 30.9462 46.498 30.9462ZM50.1021 26.8512C50.2701 26.5572 50.5161 26.3172 50.8401 26.1312C51.1641 25.9452 51.5331 25.8522 51.9471 25.8522C52.3911 25.8522 52.7901 25.9572 53.1441 26.1672C53.4981 26.3772 53.7771 26.6742 53.9811 27.0582C54.1851 27.4362 54.2871 27.8772 54.2871 28.3812C54.2871 28.8792 54.1851 29.3232 53.9811 29.7132C53.7771 30.1032 53.4951 30.4062 53.1351 30.6222C52.7811 30.8382 52.3851 30.9462 51.9471 30.9462C51.5211 30.9462 51.1461 30.8532 50.8221 30.6672C50.5041 30.4812 50.2641 30.2442 50.1021 29.9562V30.8652H49.2831V24.2052H50.1021V26.8512ZM53.4501 28.3812C53.4501 28.0092 53.3751 27.6852 53.2251 27.4092C53.0751 27.1332 52.8711 26.9232 52.6131 26.7792C52.3611 26.6352 52.0821 26.5632 51.7761 26.5632C51.4761 26.5632 51.1971 26.6382 50.9391 26.7882C50.6871 26.9322 50.4831 27.1452 50.3271 27.4272C50.1771 27.7032 50.1021 28.0242 50.1021 28.3902C50.1021 28.7622 50.1771 29.0892 50.3271 29.3712C50.4831 29.6472 50.6871 29.8602 50.9391 30.0102C51.1971 30.1542 51.4761 30.2262 51.7761 30.2262C52.0821 30.2262 52.3611 30.1542 52.6131 30.0102C52.8711 29.8602 53.0751 29.6472 53.2251 29.3712C53.3751 29.0892 53.4501 28.7592 53.4501 28.3812ZM59.6941 28.2102C59.6941 28.3662 59.6851 28.5312 59.6671 28.7052H55.7251C55.7551 29.1912 55.9201 29.5722 56.2201 29.8482C56.5261 30.1182 56.8951 30.2532 57.3271 30.2532C57.6811 30.2532 57.9751 30.1722 58.2091 30.0102C58.4491 29.8422 58.6171 29.6202 58.7131 29.3442H59.5951C59.4631 29.8182 59.1991 30.2052 58.8031 30.5052C58.4071 30.7992 57.9151 30.9462 57.3271 30.9462C56.8591 30.9462 56.4391 30.8412 56.0671 30.6312C55.7011 30.4212 55.4131 30.1242 55.2031 29.7402C54.9931 29.3502 54.8881 28.9002 54.8881 28.3902C54.8881 27.8802 54.9901 27.4332 55.1941 27.0492C55.3981 26.6652 55.6831 26.3712 56.0491 26.1672C56.4211 25.9572 56.8471 25.8522 57.3271 25.8522C57.7951 25.8522 58.2091 25.9542 58.5691 26.1582C58.9291 26.3622 59.2051 26.6442 59.3971 27.0042C59.5951 27.3582 59.6941 27.7602 59.6941 28.2102ZM58.8481 28.0392C58.8481 27.7272 58.7791 27.4602 58.6411 27.2382C58.5031 27.0102 58.3141 26.8392 58.0741 26.7252C57.8401 26.6052 57.5791 26.5452 57.2911 26.5452C56.8771 26.5452 56.5231 26.6772 56.2291 26.9412C55.9411 27.2052 55.7761 27.5712 55.7341 28.0392H58.8481ZM67.1742 25.9332L65.6352 30.8652H64.7892L63.6012 26.9502L62.4132 30.8652H61.5672L60.0192 25.9332H60.8562L61.9902 30.0732L63.2142 25.9332H64.0512L65.2482 30.0822L66.3642 25.9332H67.1742ZM72.316 28.2102C72.316 28.3662 72.307 28.5312 72.289 28.7052H68.347C68.377 29.1912 68.542 29.5722 68.842 29.8482C69.148 30.1182 69.517 30.2532 69.949 30.2532C70.303 30.2532 70.597 30.1722 70.831 30.0102C71.071 29.8422 71.239 29.6202 71.335 29.3442H72.217C72.085 29.8182 71.821 30.2052 71.425 30.5052C71.029 30.7992 70.537 30.9462 69.949 30.9462C69.481 30.9462 69.061 30.8412 68.689 30.6312C68.323 30.4212 68.035 30.1242 67.825 29.7402C67.615 29.3502 67.51 28.9002 67.51 28.3902C67.51 27.8802 67.612 27.4332 67.816 27.0492C68.02 26.6652 68.305 26.3712 68.671 26.1672C69.043 25.9572 69.469 25.8522 69.949 25.8522C70.417 25.8522 70.831 25.9542 71.191 26.1582C71.551 26.3622 71.827 26.6442 72.019 27.0042C72.217 27.3582 72.316 27.7602 72.316 28.2102ZM71.47 28.0392C71.47 27.7272 71.401 27.4602 71.263 27.2382C71.125 27.0102 70.936 26.8392 70.696 26.7252C70.462 26.6052 70.201 26.5452 69.913 26.5452C69.499 26.5452 69.145 26.6772 68.851 26.9412C68.563 27.2052 68.398 27.5712 68.356 28.0392H71.47ZM75.2601 25.8522C75.6861 25.8522 76.0581 25.9452 76.3761 26.1312C76.7001 26.3172 76.9401 26.5512 77.0961 26.8332V25.9332H77.9241V30.9732C77.9241 31.4232 77.8281 31.8222 77.6361 32.1702C77.4441 32.5242 77.1681 32.8002 76.8081 32.9982C76.4541 33.1962 76.0401 33.2952 75.5661 33.2952C74.9181 33.2952 74.3781 33.1422 73.9461 32.8362C73.5141 32.5302 73.2591 32.1132 73.1811 31.5852H73.9911C74.0811 31.8852 74.2671 32.1252 74.5491 32.3052C74.8311 32.4912 75.1701 32.5842 75.5661 32.5842C76.0161 32.5842 76.3821 32.4432 76.6641 32.1612C76.9521 31.8792 77.0961 31.4832 77.0961 30.9732V29.9382C76.9341 30.2262 76.6941 30.4662 76.3761 30.6582C76.0581 30.8502 75.6861 30.9462 75.2601 30.9462C74.8221 30.9462 74.4231 30.8382 74.0631 30.6222C73.7091 30.4062 73.4301 30.1032 73.2261 29.7132C73.0221 29.3232 72.9201 28.8792 72.9201 28.3812C72.9201 27.8772 73.0221 27.4362 73.2261 27.0582C73.4301 26.6742 73.7091 26.3772 74.0631 26.1672C74.4231 25.9572 74.8221 25.8522 75.2601 25.8522ZM77.0961 28.3902C77.0961 28.0182 77.0211 27.6942 76.8711 27.4182C76.7211 27.1422 76.5171 26.9322 76.2591 26.7882C76.0071 26.6382 75.7281 26.5632 75.4221 26.5632C75.1161 26.5632 74.8371 26.6352 74.5851 26.7792C74.3331 26.9232 74.1321 27.1332 73.9821 27.4092C73.8321 27.6852 73.7571 28.0092 73.7571 28.3812C73.7571 28.7592 73.8321 29.0892 73.9821 29.3712C74.1321 29.6472 74.3331 29.8602 74.5851 30.0102C74.8371 30.1542 75.1161 30.2262 75.4221 30.2262C75.7281 30.2262 76.0071 30.1542 76.2591 30.0102C76.5171 29.8602 76.7211 29.6472 76.8711 29.3712C77.0211 29.0892 77.0961 28.7622 77.0961 28.3902ZM83.5111 25.9332V30.8652H82.6921V30.1362C82.5361 30.3882 82.3171 30.5862 82.0351 30.7302C81.7591 30.8682 81.4531 30.9372 81.1171 30.9372C80.7331 30.9372 80.3881 30.8592 80.0821 30.7032C79.7761 30.5412 79.5331 30.3012 79.3531 29.9832C79.1791 29.6652 79.0921 29.2782 79.0921 28.8222V25.9332H79.9021V28.7142C79.9021 29.2002 80.0251 29.5752 80.2711 29.8392C80.5171 30.0972 80.8531 30.2262 81.2791 30.2262C81.7171 30.2262 82.0621 30.0912 82.3141 29.8212C82.5661 29.5512 82.6921 29.1582 82.6921 28.6422V25.9332H83.5111ZM87.1259 25.8432C87.7259 25.8432 88.2119 26.0262 88.5839 26.3922C88.9559 26.7522 89.1419 27.2742 89.1419 27.9582V30.8652H88.3319V28.0752C88.3319 27.5832 88.2089 27.2082 87.9629 26.9502C87.7169 26.6862 87.3809 26.5542 86.9549 26.5542C86.5229 26.5542 86.1779 26.6892 85.9199 26.9592C85.6679 27.2292 85.5419 27.6222 85.5419 28.1382V30.8652H84.7229V25.9332H85.5419V26.6352C85.7039 26.3832 85.9229 26.1882 86.1989 26.0502C86.4809 25.9122 86.7899 25.8432 87.1259 25.8432ZM92.3428 25.8522C92.7688 25.8522 93.1408 25.9452 93.4588 26.1312C93.7828 26.3172 94.0228 26.5512 94.1788 26.8332V25.9332H95.0068V30.9732C95.0068 31.4232 94.9108 31.8222 94.7188 32.1702C94.5268 32.5242 94.2508 32.8002 93.8908 32.9982C93.5368 33.1962 93.1228 33.2952 92.6488 33.2952C92.0008 33.2952 91.4608 33.1422 91.0288 32.8362C90.5968 32.5302 90.3418 32.1132 90.2638 31.5852H91.0738C91.1638 31.8852 91.3498 32.1252 91.6318 32.3052C91.9138 32.4912 92.2528 32.5842 92.6488 32.5842C93.0988 32.5842 93.4648 32.4432 93.7468 32.1612C94.0348 31.8792 94.1788 31.4832 94.1788 30.9732V29.9382C94.0168 30.2262 93.7768 30.4662 93.4588 30.6582C93.1408 30.8502 92.7688 30.9462 92.3428 30.9462C91.9048 30.9462 91.5058 30.8382 91.1458 30.6222C90.7918 30.4062 90.5128 30.1032 90.3088 29.7132C90.1048 29.3232 90.0028 28.8792 90.0028 28.3812C90.0028 27.8772 90.1048 27.4362 90.3088 27.0582C90.5128 26.6742 90.7918 26.3772 91.1458 26.1672C91.5058 25.9572 91.9048 25.8522 92.3428 25.8522ZM94.1788 28.3902C94.1788 28.0182 94.1038 27.6942 93.9538 27.4182C93.8038 27.1422 93.5998 26.9322 93.3418 26.7882C93.0898 26.6382 92.8108 26.5632 92.5048 26.5632C92.1988 26.5632 91.9198 26.6352 91.6678 26.7792C91.4158 26.9232 91.2148 27.1332 91.0648 27.4092C90.9148 27.6852 90.8398 28.0092 90.8398 28.3812C90.8398 28.7592 90.9148 29.0892 91.0648 29.3712C91.2148 29.6472 91.4158 29.8602 91.6678 30.0102C91.9198 30.1542 92.1988 30.2262 92.5048 30.2262C92.8108 30.2262 93.0898 30.1542 93.3418 30.0102C93.5998 29.8602 93.8038 29.6472 93.9538 29.3712C94.1038 29.0892 94.1788 28.7622 94.1788 28.3902ZM100.72 28.2102C100.72 28.3662 100.711 28.5312 100.693 28.7052H96.7508C96.7808 29.1912 96.9458 29.5722 97.2458 29.8482C97.5518 30.1182 97.9208 30.2532 98.3528 30.2532C98.7068 30.2532 99.0008 30.1722 99.2348 30.0102C99.4748 29.8422 99.6428 29.6202 99.7388 29.3442H100.621C100.489 29.8182 100.225 30.2052 99.8288 30.5052C99.4328 30.7992 98.9408 30.9462 98.3528 30.9462C97.8848 30.9462 97.4648 30.8412 97.0928 30.6312C96.7268 30.4212 96.4388 30.1242 96.2288 29.7402C96.0188 29.3502 95.9138 28.9002 95.9138 28.3902C95.9138 27.8802 96.0158 27.4332 96.2198 27.0492C96.4238 26.6652 96.7088 26.3712 97.0748 26.1672C97.4468 25.9572 97.8728 25.8522 98.3528 25.8522C98.8208 25.8522 99.2348 25.9542 99.5948 26.1582C99.9548 26.3622 100.231 26.6442 100.423 27.0042C100.621 27.3582 100.72 27.7602 100.72 28.2102ZM99.8738 28.0392C99.8738 27.7272 99.8048 27.4602 99.6668 27.2382C99.5288 27.0102 99.3398 26.8392 99.0998 26.7252C98.8658 26.6052 98.6048 26.5452 98.3168 26.5452C97.9028 26.5452 97.5488 26.6772 97.2548 26.9412C96.9668 27.2052 96.8018 27.5712 96.7598 28.0392H99.8738ZM104.033 25.8432C104.633 25.8432 105.119 26.0262 105.491 26.3922C105.863 26.7522 106.049 27.2742 106.049 27.9582V30.8652H105.239V28.0752C105.239 27.5832 105.116 27.2082 104.87 26.9502C104.624 26.6862 104.288 26.5542 103.862 26.5542C103.43 26.5542 103.085 26.6892 102.827 26.9592C102.575 27.2292 102.449 27.6222 102.449 28.1382V30.8652H101.63V25.9332H102.449V26.6352C102.611 26.3832 102.83 26.1882 103.106 26.0502C103.388 25.9122 103.697 25.8432 104.033 25.8432Z" fill="black"/>
<rect x="118.727" y="16.8652" width="45" height="22" rx="4" fill="#EBEBEB"/>
<mask id="mask0_40000066_44958" style="mask-type:alpha" maskUnits="userSpaceOnUse" x="125" y="20" width="15" height="15">
<rect x="125.727" y="20.8652" width="14" height="14" fill="#D9D9D9"/>
</mask>
<g mask="url(#mask0_40000066_44958)">
<path d="M131.134 31.9486H134.314L134.022 30.7819H131.426L131.134 31.9486ZM130.974 29.6152H134.474C135.281 29.6152 135.969 29.3309 136.538 28.7621C137.106 28.1934 137.391 27.5055 137.391 26.6986C137.391 25.8916 137.106 25.2038 136.538 24.635C135.969 24.0663 135.281 23.7819 134.474 23.7819H130.974C130.167 23.7819 129.479 24.0663 128.91 24.635C128.342 25.2038 128.057 25.8916 128.057 26.6986C128.057 27.5055 128.342 28.1934 128.91 28.7621C129.479 29.3309 130.167 29.6152 130.974 29.6152ZM132.724 27.8652C132.403 27.8652 132.128 27.751 131.9 27.5225C131.672 27.2941 131.557 27.0194 131.557 26.6986C131.557 26.3777 131.672 26.1031 131.9 25.8746C132.128 25.6461 132.403 25.5319 132.724 25.5319C133.045 25.5319 133.319 25.6461 133.548 25.8746C133.776 26.1031 133.891 26.3777 133.891 26.6986C133.891 27.0194 133.776 27.2941 133.548 27.5225C133.319 27.751 133.045 27.8652 132.724 27.8652ZM129.516 26.1152C129.681 26.1152 129.819 26.0593 129.931 25.9475C130.043 25.8357 130.099 25.6972 130.099 25.5319C130.099 25.3666 130.043 25.2281 129.931 25.1163C129.819 25.0045 129.681 24.9486 129.516 24.9486C129.35 24.9486 129.212 25.0045 129.1 25.1163C128.988 25.2281 128.932 25.3666 128.932 25.5319C128.932 25.6972 128.988 25.8357 129.1 25.9475C129.212 26.0593 129.35 26.1152 129.516 26.1152ZM128.057 33.1152V31.9486H129.939L130.245 30.7236C129.282 30.5583 128.483 30.0989 127.846 29.3454C127.209 28.592 126.891 27.7097 126.891 26.6986C126.891 25.5611 127.287 24.5961 128.079 23.8038C128.872 23.0114 129.836 22.6152 130.974 22.6152H134.474C135.611 22.6152 136.576 23.0114 137.369 23.8038C138.161 24.5961 138.557 25.5611 138.557 26.6986C138.557 27.7097 138.239 28.592 137.602 29.3454C136.965 30.0989 136.166 30.5583 135.203 30.7236L135.509 31.9486H137.391V33.1152H128.057ZM132.724 29.0319C133.366 29.0319 133.915 28.8034 134.372 28.3465C134.829 27.8895 135.057 27.3402 135.057 26.6986C135.057 26.0569 134.829 25.5076 134.372 25.0507C133.915 24.5937 133.366 24.3652 132.724 24.3652C132.082 24.3652 131.533 24.5937 131.076 25.0507C130.619 25.5076 130.391 26.0569 130.391 26.6986C130.391 27.3402 130.619 27.8895 131.076 28.3465C131.533 28.8034 132.082 29.0319 132.724 29.0319Z" fill="#1C1B1F"/>
</g>
<path d="M149.822 30.8652L147.239 28.0032V30.8652H146.42V24.5922H147.239V27.4992L149.831 24.5922H150.866L148.022 27.7332L150.893 30.8652H149.822ZM152.059 25.1322C151.903 25.1322 151.771 25.0782 151.663 24.9702C151.555 24.8622 151.501 24.7302 151.501 24.5742C151.501 24.4182 151.555 24.2862 151.663 24.1782C151.771 24.0702 151.903 24.0162 152.059 24.0162C152.209 24.0162 152.335 24.0702 152.437 24.1782C152.545 24.2862 152.599 24.4182 152.599 24.5742C152.599 24.7302 152.545 24.8622 152.437 24.9702C152.335 25.0782 152.209 25.1322 152.059 25.1322ZM152.455 25.9332V30.8652H151.636V25.9332H152.455ZM154.679 26.6082V29.5152C154.679 29.7552 154.73 29.9262 154.832 30.0282C154.934 30.1242 155.111 30.1722 155.363 30.1722H155.966V30.8652H155.228C154.772 30.8652 154.43 30.7602 154.202 30.5502C153.974 30.3402 153.86 29.9952 153.86 29.5152V26.6082H153.221V25.9332H153.86V24.6912H154.679V25.9332H155.966V26.6082H154.679Z" fill="black"/>
</g>
<g filter="url(#filter1_d_40000066_44958)">
<rect x="183.982" y="10.7121" width="167.49" height="34.3069" rx="7.74497" fill="white"/>
<rect x="183.982" y="10.7121" width="167.49" height="34.3069" rx="7.74497" stroke="#C0C0C0" stroke-width="0.510067"/>
<path d="M194.409 30.9282C193.995 30.9282 193.623 30.8562 193.293 30.7122C192.969 30.5622 192.714 30.3582 192.528 30.1002C192.342 29.8362 192.246 29.5332 192.24 29.1912H193.113C193.143 29.4852 193.263 29.7342 193.473 29.9382C193.689 30.1362 194.001 30.2352 194.409 30.2352C194.799 30.2352 195.105 30.1392 195.327 29.9472C195.555 29.7492 195.669 29.4972 195.669 29.1912C195.669 28.9512 195.603 28.7562 195.471 28.6062C195.339 28.4562 195.174 28.3422 194.976 28.2642C194.778 28.1862 194.511 28.1022 194.175 28.0122C193.761 27.9042 193.428 27.7962 193.176 27.6882C192.93 27.5802 192.717 27.4122 192.537 27.1842C192.363 26.9502 192.276 26.6382 192.276 26.2482C192.276 25.9062 192.363 25.6032 192.537 25.3392C192.711 25.0752 192.954 24.8712 193.266 24.7272C193.584 24.5832 193.947 24.5112 194.355 24.5112C194.943 24.5112 195.423 24.6582 195.795 24.9522C196.173 25.2462 196.386 25.6362 196.434 26.1222H195.534C195.504 25.8822 195.378 25.6722 195.156 25.4922C194.934 25.3062 194.64 25.2132 194.274 25.2132C193.932 25.2132 193.653 25.3032 193.437 25.4832C193.221 25.6572 193.113 25.9032 193.113 26.2212C193.113 26.4492 193.176 26.6352 193.302 26.7792C193.434 26.9232 193.593 27.0342 193.779 27.1122C193.971 27.1842 194.238 27.2682 194.58 27.3642C194.994 27.4782 195.327 27.5922 195.579 27.7062C195.831 27.8142 196.047 27.9852 196.227 28.2192C196.407 28.4472 196.497 28.7592 196.497 29.1552C196.497 29.4612 196.416 29.7492 196.254 30.0192C196.092 30.2892 195.852 30.5082 195.534 30.6762C195.216 30.8442 194.841 30.9282 194.409 30.9282ZM197.225 28.3902C197.225 27.8802 197.327 27.4362 197.531 27.0582C197.735 26.6742 198.017 26.3772 198.377 26.1672C198.743 25.9572 199.16 25.8522 199.628 25.8522C200.234 25.8522 200.732 25.9992 201.122 26.2932C201.518 26.5872 201.779 26.9952 201.905 27.5172H201.023C200.939 27.2172 200.774 26.9802 200.528 26.8062C200.288 26.6322 199.988 26.5452 199.628 26.5452C199.16 26.5452 198.782 26.7072 198.494 27.0312C198.206 27.3492 198.062 27.8022 198.062 28.3902C198.062 28.9842 198.206 29.4432 198.494 29.7672C198.782 30.0912 199.16 30.2532 199.628 30.2532C199.988 30.2532 200.288 30.1692 200.528 30.0012C200.768 29.8332 200.933 29.5932 201.023 29.2812H201.905C201.773 29.7852 201.509 30.1902 201.113 30.4962C200.717 30.7962 200.222 30.9462 199.628 30.9462C199.16 30.9462 198.743 30.8412 198.377 30.6312C198.017 30.4212 197.735 30.1242 197.531 29.7402C197.327 29.3562 197.225 28.9062 197.225 28.3902ZM205.275 25.8432C205.647 25.8432 205.983 25.9242 206.283 26.0862C206.583 26.2422 206.817 26.4792 206.985 26.7972C207.159 27.1152 207.246 27.5022 207.246 27.9582V30.8652H206.436V28.0752C206.436 27.5832 206.313 27.2082 206.067 26.9502C205.821 26.6862 205.485 26.5542 205.059 26.5542C204.627 26.5542 204.282 26.6892 204.024 26.9592C203.772 27.2292 203.646 27.6222 203.646 28.1382V30.8652H202.827V24.2052H203.646V26.6352C203.808 26.3832 204.03 26.1882 204.312 26.0502C204.6 25.9122 204.921 25.8432 205.275 25.8432ZM210.815 25.8432C211.415 25.8432 211.901 26.0262 212.273 26.3922C212.645 26.7522 212.831 27.2742 212.831 27.9582V30.8652H212.021V28.0752C212.021 27.5832 211.898 27.2082 211.652 26.9502C211.406 26.6862 211.07 26.5542 210.644 26.5542C210.212 26.5542 209.867 26.6892 209.609 26.9592C209.357 27.2292 209.231 27.6222 209.231 28.1382V30.8652H208.412V25.9332H209.231V26.6352C209.393 26.3832 209.612 26.1882 209.888 26.0502C210.17 25.9122 210.479 25.8432 210.815 25.8432ZM218.498 28.2102C218.498 28.3662 218.489 28.5312 218.471 28.7052H214.529C214.559 29.1912 214.724 29.5722 215.024 29.8482C215.33 30.1182 215.699 30.2532 216.131 30.2532C216.485 30.2532 216.779 30.1722 217.013 30.0102C217.253 29.8422 217.421 29.6202 217.517 29.3442H218.399C218.267 29.8182 218.003 30.2052 217.607 30.5052C217.211 30.7992 216.719 30.9462 216.131 30.9462C215.663 30.9462 215.243 30.8412 214.871 30.6312C214.505 30.4212 214.217 30.1242 214.007 29.7402C213.797 29.3502 213.692 28.9002 213.692 28.3902C213.692 27.8802 213.794 27.4332 213.998 27.0492C214.202 26.6652 214.487 26.3712 214.853 26.1672C215.225 25.9572 215.651 25.8522 216.131 25.8522C216.599 25.8522 217.013 25.9542 217.373 26.1582C217.733 26.3622 218.009 26.6442 218.201 27.0042C218.399 27.3582 218.498 27.7602 218.498 28.2102ZM217.652 28.0392C217.652 27.7272 217.583 27.4602 217.445 27.2382C217.307 27.0102 217.118 26.8392 216.878 26.7252C216.644 26.6052 216.383 26.5452 216.095 26.5452C215.681 26.5452 215.327 26.6772 215.033 26.9412C214.745 27.2052 214.58 27.5712 214.538 28.0392H217.652ZM220.227 24.2052V30.8652H219.408V24.2052H220.227ZM222.271 24.2052V30.8652H221.452V24.2052H222.271ZM227.996 28.2102C227.996 28.3662 227.987 28.5312 227.969 28.7052H224.027C224.057 29.1912 224.222 29.5722 224.522 29.8482C224.828 30.1182 225.197 30.2532 225.629 30.2532C225.983 30.2532 226.277 30.1722 226.511 30.0102C226.751 29.8422 226.919 29.6202 227.015 29.3442H227.897C227.765 29.8182 227.501 30.2052 227.105 30.5052C226.709 30.7992 226.217 30.9462 225.629 30.9462C225.161 30.9462 224.741 30.8412 224.369 30.6312C224.003 30.4212 223.715 30.1242 223.505 29.7402C223.295 29.3502 223.19 28.9002 223.19 28.3902C223.19 27.8802 223.292 27.4332 223.496 27.0492C223.7 26.6652 223.985 26.3712 224.351 26.1672C224.723 25.9572 225.149 25.8522 225.629 25.8522C226.097 25.8522 226.511 25.9542 226.871 26.1582C227.231 26.3622 227.507 26.6442 227.699 27.0042C227.897 27.3582 227.996 27.7602 227.996 28.2102ZM227.15 28.0392C227.15 27.7272 227.081 27.4602 226.943 27.2382C226.805 27.0102 226.616 26.8392 226.376 26.7252C226.142 26.6052 225.881 26.5452 225.593 26.5452C225.179 26.5452 224.825 26.6772 224.531 26.9412C224.243 27.2052 224.078 27.5712 224.036 28.0392H227.15ZM234.536 30.8652L231.953 28.0032V30.8652H231.134V24.5922H231.953V27.4992L234.545 24.5922H235.58L232.736 27.7332L235.607 30.8652H234.536ZM237.17 26.7342C237.314 26.4522 237.518 26.2332 237.782 26.0772C238.052 25.9212 238.379 25.8432 238.763 25.8432V26.6892H238.547C237.629 26.6892 237.17 27.1872 237.17 28.1832V30.8652H236.351V25.9332H237.17V26.7342ZM239.232 28.3812C239.232 27.8772 239.334 27.4362 239.538 27.0582C239.742 26.6742 240.021 26.3772 240.375 26.1672C240.735 25.9572 241.134 25.8522 241.572 25.8522C242.004 25.8522 242.379 25.9452 242.697 26.1312C243.015 26.3172 243.252 26.5512 243.408 26.8332V25.9332H244.236V30.8652H243.408V29.9472C243.246 30.2352 243.003 30.4752 242.679 30.6672C242.361 30.8532 241.989 30.9462 241.563 30.9462C241.125 30.9462 240.729 30.8382 240.375 30.6222C240.021 30.4062 239.742 30.1032 239.538 29.7132C239.334 29.3232 239.232 28.8792 239.232 28.3812ZM243.408 28.3902C243.408 28.0182 243.333 27.6942 243.183 27.4182C243.033 27.1422 242.829 26.9322 242.571 26.7882C242.319 26.6382 242.04 26.5632 241.734 26.5632C241.428 26.5632 241.149 26.6352 240.897 26.7792C240.645 26.9232 240.444 27.1332 240.294 27.4092C240.144 27.6852 240.069 28.0092 240.069 28.3812C240.069 28.7592 240.144 29.0892 240.294 29.3712C240.444 29.6472 240.645 29.8602 240.897 30.0102C241.149 30.1542 241.428 30.2262 241.734 30.2262C242.04 30.2262 242.319 30.1542 242.571 30.0102C242.829 29.8602 243.033 29.6472 243.183 29.3712C243.333 29.0892 243.408 28.7622 243.408 28.3902ZM247.456 26.6082H246.421V30.8652H245.602V26.6082H244.963V25.9332H245.602V25.5822C245.602 25.0302 245.743 24.6282 246.025 24.3762C246.313 24.1182 246.772 23.9892 247.402 23.9892V24.6732C247.042 24.6732 246.787 24.7452 246.637 24.8892C246.493 25.0272 246.421 25.2582 246.421 25.5822V25.9332H247.456V26.6082ZM249.239 26.6082V29.5152C249.239 29.7552 249.29 29.9262 249.392 30.0282C249.494 30.1242 249.671 30.1722 249.923 30.1722H250.526V30.8652H249.788C249.332 30.8652 248.99 30.7602 248.762 30.5502C248.534 30.3402 248.42 29.9952 248.42 29.5152V26.6082H247.781V25.9332H248.42V24.6912H249.239V25.9332H250.526V26.6082H249.239ZM255.721 25.9332V30.8652H254.902V30.1362C254.746 30.3882 254.527 30.5862 254.245 30.7302C253.969 30.8682 253.663 30.9372 253.327 30.9372C252.943 30.9372 252.598 30.8592 252.292 30.7032C251.986 30.5412 251.743 30.3012 251.563 29.9832C251.389 29.6652 251.302 29.2782 251.302 28.8222V25.9332H252.112V28.7142C252.112 29.2002 252.235 29.5752 252.481 29.8392C252.727 30.0972 253.063 30.2262 253.489 30.2262C253.927 30.2262 254.272 30.0912 254.524 29.8212C254.776 29.5512 254.902 29.1582 254.902 28.6422V25.9332H255.721ZM252.814 25.2672C252.682 25.2672 252.568 25.2222 252.472 25.1322C252.382 25.0422 252.337 24.9312 252.337 24.7992C252.337 24.6672 252.382 24.5562 252.472 24.4662C252.568 24.3702 252.682 24.3222 252.814 24.3222C252.94 24.3222 253.048 24.3702 253.138 24.4662C253.234 24.5562 253.282 24.6672 253.282 24.7992C253.282 24.9312 253.234 25.0422 253.138 25.1322C253.048 25.2222 252.94 25.2672 252.814 25.2672ZM254.272 25.2672C254.14 25.2672 254.029 25.2222 253.939 25.1322C253.849 25.0422 253.804 24.9312 253.804 24.7992C253.804 24.6672 253.849 24.5562 253.939 24.4662C254.029 24.3702 254.14 24.3222 254.272 24.3222C254.404 24.3222 254.515 24.3702 254.605 24.4662C254.701 24.5562 254.749 24.6672 254.749 24.7992C254.749 24.9312 254.701 25.0422 254.605 25.1322C254.515 25.2222 254.404 25.2672 254.272 25.2672ZM257.752 26.8512C257.92 26.5572 258.166 26.3172 258.49 26.1312C258.814 25.9452 259.183 25.8522 259.597 25.8522C260.041 25.8522 260.44 25.9572 260.794 26.1672C261.148 26.3772 261.427 26.6742 261.631 27.0582C261.835 27.4362 261.937 27.8772 261.937 28.3812C261.937 28.8792 261.835 29.3232 261.631 29.7132C261.427 30.1032 261.145 30.4062 260.785 30.6222C260.431 30.8382 260.035 30.9462 259.597 30.9462C259.171 30.9462 258.796 30.8532 258.472 30.6672C258.154 30.4812 257.914 30.2442 257.752 29.9562V30.8652H256.933V24.2052H257.752V26.8512ZM261.1 28.3812C261.1 28.0092 261.025 27.6852 260.875 27.4092C260.725 27.1332 260.521 26.9232 260.263 26.7792C260.011 26.6352 259.732 26.5632 259.426 26.5632C259.126 26.5632 258.847 26.6382 258.589 26.7882C258.337 26.9322 258.133 27.1452 257.977 27.4272C257.827 27.7032 257.752 28.0242 257.752 28.3902C257.752 28.7622 257.827 29.0892 257.977 29.3712C258.133 29.6472 258.337 29.8602 258.589 30.0102C258.847 30.1542 259.126 30.2262 259.426 30.2262C259.732 30.2262 260.011 30.1542 260.263 30.0102C260.521 29.8602 260.725 29.6472 260.875 29.3712C261.025 29.0892 261.1 28.7592 261.1 28.3812ZM267.218 25.9332V30.8652H266.399V30.1362C266.243 30.3882 266.024 30.5862 265.742 30.7302C265.466 30.8682 265.16 30.9372 264.824 30.9372C264.44 30.9372 264.095 30.8592 263.789 30.7032C263.483 30.5412 263.24 30.3012 263.06 29.9832C262.886 29.6652 262.799 29.2782 262.799 28.8222V25.9332H263.609V28.7142C263.609 29.2002 263.732 29.5752 263.978 29.8392C264.224 30.0972 264.56 30.2262 264.986 30.2262C265.424 30.2262 265.769 30.0912 266.021 29.8212C266.273 29.5512 266.399 29.1582 266.399 28.6422V25.9332H267.218ZM270.833 25.8432C271.433 25.8432 271.919 26.0262 272.291 26.3922C272.663 26.7522 272.849 27.2742 272.849 27.9582V30.8652H272.039V28.0752C272.039 27.5832 271.916 27.2082 271.67 26.9502C271.424 26.6862 271.088 26.5542 270.662 26.5542C270.23 26.5542 269.885 26.6892 269.627 26.9592C269.375 27.2292 269.249 27.6222 269.249 28.1382V30.8652H268.43V25.9332H269.249V26.6352C269.411 26.3832 269.63 26.1882 269.906 26.0502C270.188 25.9122 270.497 25.8432 270.833 25.8432ZM276.049 25.8522C276.475 25.8522 276.847 25.9452 277.165 26.1312C277.489 26.3172 277.729 26.5512 277.885 26.8332V25.9332H278.713V30.9732C278.713 31.4232 278.617 31.8222 278.425 32.1702C278.233 32.5242 277.957 32.8002 277.597 32.9982C277.243 33.1962 276.829 33.2952 276.355 33.2952C275.707 33.2952 275.167 33.1422 274.735 32.8362C274.303 32.5302 274.048 32.1132 273.97 31.5852H274.78C274.87 31.8852 275.056 32.1252 275.338 32.3052C275.62 32.4912 275.959 32.5842 276.355 32.5842C276.805 32.5842 277.171 32.4432 277.453 32.1612C277.741 31.8792 277.885 31.4832 277.885 30.9732V29.9382C277.723 30.2262 277.483 30.4662 277.165 30.6582C276.847 30.8502 276.475 30.9462 276.049 30.9462C275.611 30.9462 275.212 30.8382 274.852 30.6222C274.498 30.4062 274.219 30.1032 274.015 29.7132C273.811 29.3232 273.709 28.8792 273.709 28.3812C273.709 27.8772 273.811 27.4362 274.015 27.0582C274.219 26.6742 274.498 26.3772 274.852 26.1672C275.212 25.9572 275.611 25.8522 276.049 25.8522ZM277.885 28.3902C277.885 28.0182 277.81 27.6942 277.66 27.4182C277.51 27.1422 277.306 26.9322 277.048 26.7882C276.796 26.6382 276.517 26.5632 276.211 26.5632C275.905 26.5632 275.626 26.6352 275.374 26.7792C275.122 26.9232 274.921 27.1332 274.771 27.4092C274.621 27.6852 274.546 28.0092 274.546 28.3812C274.546 28.7592 274.621 29.0892 274.771 29.3712C274.921 29.6472 275.122 29.8602 275.374 30.0102C275.626 30.1542 275.905 30.2262 276.211 30.2262C276.517 30.2262 276.796 30.1542 277.048 30.0102C277.306 29.8602 277.51 29.6472 277.66 29.3712C277.81 29.0892 277.885 28.7622 277.885 28.3902ZM284.426 28.2102C284.426 28.3662 284.417 28.5312 284.399 28.7052H280.457C280.487 29.1912 280.652 29.5722 280.952 29.8482C281.258 30.1182 281.627 30.2532 282.059 30.2532C282.413 30.2532 282.707 30.1722 282.941 30.0102C283.181 29.8422 283.349 29.6202 283.445 29.3442H284.327C284.195 29.8182 283.931 30.2052 283.535 30.5052C283.139 30.7992 282.647 30.9462 282.059 30.9462C281.591 30.9462 281.171 30.8412 280.799 30.6312C280.433 30.4212 280.145 30.1242 279.935 29.7402C279.725 29.3502 279.62 28.9002 279.62 28.3902C279.62 27.8802 279.722 27.4332 279.926 27.0492C280.13 26.6652 280.415 26.3712 280.781 26.1672C281.153 25.9572 281.579 25.8522 282.059 25.8522C282.527 25.8522 282.941 25.9542 283.301 26.1582C283.661 26.3622 283.937 26.6442 284.129 27.0042C284.327 27.3582 284.426 27.7602 284.426 28.2102ZM283.58 28.0392C283.58 27.7272 283.511 27.4602 283.373 27.2382C283.235 27.0102 283.046 26.8392 282.806 26.7252C282.572 26.6052 282.311 26.5452 282.023 26.5452C281.609 26.5452 281.255 26.6772 280.961 26.9412C280.673 27.2052 280.508 27.5712 280.466 28.0392H283.58ZM287.739 25.8432C288.339 25.8432 288.825 26.0262 289.197 26.3922C289.569 26.7522 289.755 27.2742 289.755 27.9582V30.8652H288.945V28.0752C288.945 27.5832 288.822 27.2082 288.576 26.9502C288.33 26.6862 287.994 26.5542 287.568 26.5542C287.136 26.5542 286.791 26.6892 286.533 26.9592C286.281 27.2292 286.155 27.6222 286.155 28.1382V30.8652H285.336V25.9332H286.155V26.6352C286.317 26.3832 286.536 26.1882 286.812 26.0502C287.094 25.9122 287.403 25.8432 287.739 25.8432Z" fill="black"/>
<rect x="298.727" y="16.8652" width="45" height="22" rx="4" fill="#EBEBEB"/>
<mask id="mask1_40000066_44958" style="mask-type:alpha" maskUnits="userSpaceOnUse" x="305" y="20" width="15" height="15">
<rect x="305.727" y="20.8652" width="14" height="14" fill="#D9D9D9"/>
</mask>
<g mask="url(#mask1_40000066_44958)">
<path d="M311.134 31.9486H314.314L314.022 30.7819H311.426L311.134 31.9486ZM310.974 29.6152H314.474C315.281 29.6152 315.969 29.3309 316.538 28.7621C317.106 28.1934 317.391 27.5055 317.391 26.6986C317.391 25.8916 317.106 25.2038 316.538 24.635C315.969 24.0663 315.281 23.7819 314.474 23.7819H310.974C310.167 23.7819 309.479 24.0663 308.91 24.635C308.342 25.2038 308.057 25.8916 308.057 26.6986C308.057 27.5055 308.342 28.1934 308.91 28.7621C309.479 29.3309 310.167 29.6152 310.974 29.6152ZM312.724 27.8652C312.403 27.8652 312.128 27.751 311.9 27.5225C311.672 27.2941 311.557 27.0194 311.557 26.6986C311.557 26.3777 311.672 26.1031 311.9 25.8746C312.128 25.6461 312.403 25.5319 312.724 25.5319C313.045 25.5319 313.319 25.6461 313.548 25.8746C313.776 26.1031 313.891 26.3777 313.891 26.6986C313.891 27.0194 313.776 27.2941 313.548 27.5225C313.319 27.751 313.045 27.8652 312.724 27.8652ZM309.516 26.1152C309.681 26.1152 309.819 26.0593 309.931 25.9475C310.043 25.8357 310.099 25.6972 310.099 25.5319C310.099 25.3666 310.043 25.2281 309.931 25.1163C309.819 25.0045 309.681 24.9486 309.516 24.9486C309.35 24.9486 309.212 25.0045 309.1 25.1163C308.988 25.2281 308.932 25.3666 308.932 25.5319C308.932 25.6972 308.988 25.8357 309.1 25.9475C309.212 26.0593 309.35 26.1152 309.516 26.1152ZM308.057 33.1152V31.9486H309.939L310.245 30.7236C309.282 30.5583 308.483 30.0989 307.846 29.3454C307.209 28.592 306.891 27.7097 306.891 26.6986C306.891 25.5611 307.287 24.5961 308.079 23.8038C308.872 23.0114 309.836 22.6152 310.974 22.6152H314.474C315.611 22.6152 316.576 23.0114 317.369 23.8038C318.161 24.5961 318.557 25.5611 318.557 26.6986C318.557 27.7097 318.239 28.592 317.602 29.3454C316.965 30.0989 316.166 30.5583 315.203 30.7236L315.509 31.9486H317.391V33.1152H308.057ZM312.724 29.0319C313.366 29.0319 313.915 28.8034 314.372 28.3465C314.829 27.8895 315.057 27.3402 315.057 26.6986C315.057 26.0569 314.829 25.5076 314.372 25.0507C313.915 24.5937 313.366 24.3652 312.724 24.3652C312.082 24.3652 311.533 24.5937 311.076 25.0507C310.619 25.5076 310.391 26.0569 310.391 26.6986C310.391 27.3402 310.619 27.8895 311.076 28.3465C311.533 28.8034 312.082 29.0319 312.724 29.0319Z" fill="#1C1B1F"/>
</g>
<path d="M329.822 30.8652L327.239 28.0032V30.8652H326.42V24.5922H327.239V27.4992L329.831 24.5922H330.866L328.022 27.7332L330.893 30.8652H329.822ZM332.059 25.1322C331.903 25.1322 331.771 25.0782 331.663 24.9702C331.555 24.8622 331.501 24.7302 331.501 24.5742C331.501 24.4182 331.555 24.2862 331.663 24.1782C331.771 24.0702 331.903 24.0162 332.059 24.0162C332.209 24.0162 332.335 24.0702 332.437 24.1782C332.545 24.2862 332.599 24.4182 332.599 24.5742C332.599 24.7302 332.545 24.8622 332.437 24.9702C332.335 25.0782 332.209 25.1322 332.059 25.1322ZM332.455 25.9332V30.8652H331.636V25.9332H332.455ZM334.679 26.6082V29.5152C334.679 29.7552 334.73 29.9262 334.832 30.0282C334.934 30.1242 335.111 30.1722 335.363 30.1722H335.966V30.8652H335.228C334.772 30.8652 334.43 30.7602 334.202 30.5502C333.974 30.3402 333.86 29.9952 333.86 29.5152V26.6082H333.221V25.9332H333.86V24.6912H334.679V25.9332H335.966V26.6082H334.679Z" fill="black"/>
</g>
<g filter="url(#filter2_d_40000066_44958)">
<rect x="363.982" y="10.7121" width="154.49" height="34.3069" rx="7.74497" fill="white"/>
<rect x="363.982" y="10.7121" width="154.49" height="34.3069" rx="7.74497" stroke="#C0C0C0" stroke-width="0.510067"/>
<path d="M375.822 30.8652L373.239 28.0032V30.8652H372.42V24.5922H373.239V27.4992L375.831 24.5922H376.866L374.022 27.7332L376.893 30.8652H375.822ZM379.787 30.9462C379.325 30.9462 378.905 30.8412 378.527 30.6312C378.155 30.4212 377.861 30.1242 377.645 29.7402C377.435 29.3502 377.33 28.9002 377.33 28.3902C377.33 27.8862 377.438 27.4422 377.654 27.0582C377.876 26.6682 378.176 26.3712 378.554 26.1672C378.932 25.9572 379.355 25.8522 379.823 25.8522C380.291 25.8522 380.714 25.9572 381.092 26.1672C381.47 26.3712 381.767 26.6652 381.983 27.0492C382.205 27.4332 382.316 27.8802 382.316 28.3902C382.316 28.9002 382.202 29.3502 381.974 29.7402C381.752 30.1242 381.449 30.4212 381.065 30.6312C380.681 30.8412 380.255 30.9462 379.787 30.9462ZM379.787 30.2262C380.081 30.2262 380.357 30.1572 380.615 30.0192C380.873 29.8812 381.08 29.6742 381.236 29.3982C381.398 29.1222 381.479 28.7862 381.479 28.3902C381.479 27.9942 381.401 27.6582 381.245 27.3822C381.089 27.1062 380.885 26.9022 380.633 26.7702C380.381 26.6322 380.108 26.5632 379.814 26.5632C379.514 26.5632 379.238 26.6322 378.986 26.7702C378.74 26.9022 378.542 27.1062 378.392 27.3822C378.242 27.6582 378.167 27.9942 378.167 28.3902C378.167 28.7922 378.239 29.1312 378.383 29.4072C378.533 29.6832 378.731 29.8902 378.977 30.0282C379.223 30.1602 379.493 30.2262 379.787 30.2262ZM385.373 30.9462C384.911 30.9462 384.491 30.8412 384.113 30.6312C383.741 30.4212 383.447 30.1242 383.231 29.7402C383.021 29.3502 382.916 28.9002 382.916 28.3902C382.916 27.8862 383.024 27.4422 383.24 27.0582C383.462 26.6682 383.762 26.3712 384.14 26.1672C384.518 25.9572 384.941 25.8522 385.409 25.8522C385.877 25.8522 386.3 25.9572 386.678 26.1672C387.056 26.3712 387.353 26.6652 387.569 27.0492C387.791 27.4332 387.902 27.8802 387.902 28.3902C387.902 28.9002 387.788 29.3502 387.56 29.7402C387.338 30.1242 387.035 30.4212 386.651 30.6312C386.267 30.8412 385.841 30.9462 385.373 30.9462ZM385.373 30.2262C385.667 30.2262 385.943 30.1572 386.201 30.0192C386.459 29.8812 386.666 29.6742 386.822 29.3982C386.984 29.1222 387.065 28.7862 387.065 28.3902C387.065 27.9942 386.987 27.6582 386.831 27.3822C386.675 27.1062 386.471 26.9022 386.219 26.7702C385.967 26.6322 385.694 26.5632 385.4 26.5632C385.1 26.5632 384.824 26.6322 384.572 26.7702C384.326 26.9022 384.128 27.1062 383.978 27.3822C383.828 27.6582 383.753 27.9942 383.753 28.3902C383.753 28.7922 383.825 29.1312 383.969 29.4072C384.119 29.6832 384.317 29.8902 384.563 30.0282C384.809 30.1602 385.079 30.2262 385.373 30.2262ZM389.627 26.7342C389.771 26.4522 389.975 26.2332 390.239 26.0772C390.509 25.9212 390.836 25.8432 391.22 25.8432V26.6892H391.004C390.086 26.6892 389.627 27.1872 389.627 28.1832V30.8652H388.808V25.9332H389.627V26.7342ZM391.688 28.3812C391.688 27.8772 391.79 27.4362 391.994 27.0582C392.198 26.6742 392.477 26.3772 392.831 26.1672C393.191 25.9572 393.593 25.8522 394.037 25.8522C394.421 25.8522 394.778 25.9422 395.108 26.1222C395.438 26.2962 395.69 26.5272 395.864 26.8152V24.2052H396.692V30.8652H395.864V29.9382C395.702 30.2322 395.462 30.4752 395.144 30.6672C394.826 30.8532 394.454 30.9462 394.028 30.9462C393.59 30.9462 393.191 30.8382 392.831 30.6222C392.477 30.4062 392.198 30.1032 391.994 29.7132C391.79 29.3232 391.688 28.8792 391.688 28.3812ZM395.864 28.3902C395.864 28.0182 395.789 27.6942 395.639 27.4182C395.489 27.1422 395.285 26.9322 395.027 26.7882C394.775 26.6382 394.496 26.5632 394.19 26.5632C393.884 26.5632 393.605 26.6352 393.353 26.7792C393.101 26.9232 392.9 27.1332 392.75 27.4092C392.6 27.6852 392.525 28.0092 392.525 28.3812C392.525 28.7592 392.6 29.0892 392.75 29.3712C392.9 29.6472 393.101 29.8602 393.353 30.0102C393.605 30.1542 393.884 30.2262 394.19 30.2262C394.496 30.2262 394.775 30.1542 395.027 30.0102C395.285 29.8602 395.489 29.6472 395.639 29.3712C395.789 29.0892 395.864 28.7622 395.864 28.3902ZM398.328 25.1322C398.172 25.1322 398.04 25.0782 397.932 24.9702C397.824 24.8622 397.77 24.7302 397.77 24.5742C397.77 24.4182 397.824 24.2862 397.932 24.1782C398.04 24.0702 398.172 24.0162 398.328 24.0162C398.478 24.0162 398.604 24.0702 398.706 24.1782C398.814 24.2862 398.868 24.4182 398.868 24.5742C398.868 24.7302 398.814 24.8622 398.706 24.9702C398.604 25.0782 398.478 25.1322 398.328 25.1322ZM398.724 25.9332V30.8652H397.905V25.9332H398.724ZM402.352 25.8432C402.952 25.8432 403.438 26.0262 403.81 26.3922C404.182 26.7522 404.368 27.2742 404.368 27.9582V30.8652H403.558V28.0752C403.558 27.5832 403.435 27.2082 403.189 26.9502C402.943 26.6862 402.607 26.5542 402.181 26.5542C401.749 26.5542 401.404 26.6892 401.146 26.9592C400.894 27.2292 400.768 27.6222 400.768 28.1382V30.8652H399.949V25.9332H400.768V26.6352C400.93 26.3832 401.149 26.1882 401.425 26.0502C401.707 25.9122 402.016 25.8432 402.352 25.8432ZM405.229 28.3812C405.229 27.8772 405.331 27.4362 405.535 27.0582C405.739 26.6742 406.018 26.3772 406.372 26.1672C406.732 25.9572 407.131 25.8522 407.569 25.8522C408.001 25.8522 408.376 25.9452 408.694 26.1312C409.012 26.3172 409.249 26.5512 409.405 26.8332V25.9332H410.233V30.8652H409.405V29.9472C409.243 30.2352 409 30.4752 408.676 30.6672C408.358 30.8532 407.986 30.9462 407.56 30.9462C407.122 30.9462 406.726 30.8382 406.372 30.6222C406.018 30.4062 405.739 30.1032 405.535 29.7132C405.331 29.3232 405.229 28.8792 405.229 28.3812ZM409.405 28.3902C409.405 28.0182 409.33 27.6942 409.18 27.4182C409.03 27.1422 408.826 26.9322 408.568 26.7882C408.316 26.6382 408.037 26.5632 407.731 26.5632C407.425 26.5632 407.146 26.6352 406.894 26.7792C406.642 26.9232 406.441 27.1332 406.291 27.4092C406.141 27.6852 406.066 28.0092 406.066 28.3812C406.066 28.7592 406.141 29.0892 406.291 29.3712C406.441 29.6472 406.642 29.8602 406.894 30.0102C407.146 30.1542 407.425 30.2262 407.731 30.2262C408.037 30.2262 408.316 30.1542 408.568 30.0102C408.826 29.8602 409.03 29.6472 409.18 29.3712C409.33 29.0892 409.405 28.7622 409.405 28.3902ZM412.445 26.6082V29.5152C412.445 29.7552 412.496 29.9262 412.598 30.0282C412.7 30.1242 412.877 30.1722 413.129 30.1722H413.732V30.8652H412.994C412.538 30.8652 412.196 30.7602 411.968 30.5502C411.74 30.3402 411.626 29.9952 411.626 29.5152V26.6082H410.987V25.9332H411.626V24.6912H412.445V25.9332H413.732V26.6082H412.445ZM414.976 25.1322C414.82 25.1322 414.688 25.0782 414.58 24.9702C414.472 24.8622 414.418 24.7302 414.418 24.5742C414.418 24.4182 414.472 24.2862 414.58 24.1782C414.688 24.0702 414.82 24.0162 414.976 24.0162C415.126 24.0162 415.252 24.0702 415.354 24.1782C415.462 24.2862 415.516 24.4182 415.516 24.5742C415.516 24.7302 415.462 24.8622 415.354 24.9702C415.252 25.0782 415.126 25.1322 414.976 25.1322ZM415.372 25.9332V30.8652H414.553V25.9332H415.372ZM418.748 30.9462C418.286 30.9462 417.866 30.8412 417.488 30.6312C417.116 30.4212 416.822 30.1242 416.606 29.7402C416.396 29.3502 416.291 28.9002 416.291 28.3902C416.291 27.8862 416.399 27.4422 416.615 27.0582C416.837 26.6682 417.137 26.3712 417.515 26.1672C417.893 25.9572 418.316 25.8522 418.784 25.8522C419.252 25.8522 419.675 25.9572 420.053 26.1672C420.431 26.3712 420.728 26.6652 420.944 27.0492C421.166 27.4332 421.277 27.8802 421.277 28.3902C421.277 28.9002 421.163 29.3502 420.935 29.7402C420.713 30.1242 420.41 30.4212 420.026 30.6312C419.642 30.8412 419.216 30.9462 418.748 30.9462ZM418.748 30.2262C419.042 30.2262 419.318 30.1572 419.576 30.0192C419.834 29.8812 420.041 29.6742 420.197 29.3982C420.359 29.1222 420.44 28.7862 420.44 28.3902C420.44 27.9942 420.362 27.6582 420.206 27.3822C420.05 27.1062 419.846 26.9022 419.594 26.7702C419.342 26.6322 419.069 26.5632 418.775 26.5632C418.475 26.5632 418.199 26.6322 417.947 26.7702C417.701 26.9022 417.503 27.1062 417.353 27.3822C417.203 27.6582 417.128 27.9942 417.128 28.3902C417.128 28.7922 417.2 29.1312 417.344 29.4072C417.494 29.6832 417.692 29.8902 417.938 30.0282C418.184 30.1602 418.454 30.2262 418.748 30.2262ZM424.586 25.8432C425.186 25.8432 425.672 26.0262 426.044 26.3922C426.416 26.7522 426.602 27.2742 426.602 27.9582V30.8652H425.792V28.0752C425.792 27.5832 425.669 27.2082 425.423 26.9502C425.177 26.6862 424.841 26.5542 424.415 26.5542C423.983 26.5542 423.638 26.6892 423.38 26.9592C423.128 27.2292 423.002 27.6222 423.002 28.1382V30.8652H422.183V25.9332H423.002V26.6352C423.164 26.3832 423.383 26.1882 423.659 26.0502C423.941 25.9122 424.25 25.8432 424.586 25.8432ZM429.515 30.9462C429.137 30.9462 428.798 30.8832 428.498 30.7572C428.198 30.6252 427.961 30.4452 427.787 30.2172C427.613 29.9832 427.517 29.7162 427.499 29.4162H428.345C428.369 29.6622 428.483 29.8632 428.687 30.0192C428.897 30.1752 429.17 30.2532 429.506 30.2532C429.818 30.2532 430.064 30.1842 430.244 30.0462C430.424 29.9082 430.514 29.7342 430.514 29.5242C430.514 29.3082 430.418 29.1492 430.226 29.0472C430.034 28.9392 429.737 28.8342 429.335 28.7322C428.969 28.6362 428.669 28.5402 428.435 28.4442C428.207 28.3422 428.009 28.1952 427.841 28.0032C427.679 27.8052 427.598 27.5472 427.598 27.2292C427.598 26.9772 427.673 26.7462 427.823 26.5362C427.973 26.3262 428.186 26.1612 428.462 26.0412C428.738 25.9152 429.053 25.8522 429.407 25.8522C429.953 25.8522 430.394 25.9902 430.73 26.2662C431.066 26.5422 431.246 26.9202 431.27 27.4002H430.451C430.433 27.1422 430.328 26.9352 430.136 26.7792C429.95 26.6232 429.698 26.5452 429.38 26.5452C429.086 26.5452 428.852 26.6082 428.678 26.7342C428.504 26.8602 428.417 27.0252 428.417 27.2292C428.417 27.3912 428.468 27.5262 428.57 27.6342C428.678 27.7362 428.81 27.8202 428.966 27.8862C429.128 27.9462 429.35 28.0152 429.632 28.0932C429.986 28.1892 430.274 28.2852 430.496 28.3812C430.718 28.4712 430.907 28.6092 431.063 28.7952C431.225 28.9812 431.309 29.2242 431.315 29.5242C431.315 29.7942 431.24 30.0372 431.09 30.2532C430.94 30.4692 430.727 30.6402 430.451 30.7662C430.181 30.8862 429.869 30.9462 429.515 30.9462ZM434.046 30.9462C433.668 30.9462 433.329 30.8832 433.029 30.7572C432.729 30.6252 432.492 30.4452 432.318 30.2172C432.144 29.9832 432.048 29.7162 432.03 29.4162H432.876C432.9 29.6622 433.014 29.8632 433.218 30.0192C433.428 30.1752 433.701 30.2532 434.037 30.2532C434.349 30.2532 434.595 30.1842 434.775 30.0462C434.955 29.9082 435.045 29.7342 435.045 29.5242C435.045 29.3082 434.949 29.1492 434.757 29.0472C434.565 28.9392 434.268 28.8342 433.866 28.7322C433.5 28.6362 433.2 28.5402 432.966 28.4442C432.738 28.3422 432.54 28.1952 432.372 28.0032C432.21 27.8052 432.129 27.5472 432.129 27.2292C432.129 26.9772 432.204 26.7462 432.354 26.5362C432.504 26.3262 432.717 26.1612 432.993 26.0412C433.269 25.9152 433.584 25.8522 433.938 25.8522C434.484 25.8522 434.925 25.9902 435.261 26.2662C435.597 26.5422 435.777 26.9202 435.801 27.4002H434.982C434.964 27.1422 434.859 26.9352 434.667 26.7792C434.481 26.6232 434.229 26.5452 433.911 26.5452C433.617 26.5452 433.383 26.6082 433.209 26.7342C433.035 26.8602 432.948 27.0252 432.948 27.2292C432.948 27.3912 432.999 27.5262 433.101 27.6342C433.209 27.7362 433.341 27.8202 433.497 27.8862C433.659 27.9462 433.881 28.0152 434.163 28.0932C434.517 28.1892 434.805 28.2852 435.027 28.3812C435.249 28.4712 435.438 28.6092 435.594 28.7952C435.756 28.9812 435.84 29.2242 435.846 29.5242C435.846 29.7942 435.771 30.0372 435.621 30.2532C435.471 30.4692 435.258 30.6402 434.982 30.7662C434.712 30.8862 434.4 30.9462 434.046 30.9462ZM437.65 26.8422C437.812 26.5602 438.052 26.3262 438.37 26.1402C438.694 25.9482 439.069 25.8522 439.495 25.8522C439.933 25.8522 440.329 25.9572 440.683 26.1672C441.043 26.3772 441.325 26.6742 441.529 27.0582C441.733 27.4362 441.835 27.8772 441.835 28.3812C441.835 28.8792 441.733 29.3232 441.529 29.7132C441.325 30.1032 441.043 30.4062 440.683 30.6222C440.329 30.8382 439.933 30.9462 439.495 30.9462C439.075 30.9462 438.703 30.8532 438.379 30.6672C438.061 30.4752 437.818 30.2382 437.65 29.9562V33.2052H436.831V25.9332H437.65V26.8422ZM440.998 28.3812C440.998 28.0092 440.923 27.6852 440.773 27.4092C440.623 27.1332 440.419 26.9232 440.161 26.7792C439.909 26.6352 439.63 26.5632 439.324 26.5632C439.024 26.5632 438.745 26.6382 438.487 26.7882C438.235 26.9322 438.031 27.1452 437.875 27.4272C437.725 27.7032 437.65 28.0242 437.65 28.3902C437.65 28.7622 437.725 29.0892 437.875 29.3712C438.031 29.6472 438.235 29.8602 438.487 30.0102C438.745 30.1542 439.024 30.2262 439.324 30.2262C439.63 30.2262 439.909 30.1542 440.161 30.0102C440.419 29.8602 440.623 29.6472 440.773 29.3712C440.923 29.0892 440.998 28.7592 440.998 28.3812ZM443.165 25.1322C443.009 25.1322 442.877 25.0782 442.769 24.9702C442.661 24.8622 442.607 24.7302 442.607 24.5742C442.607 24.4182 442.661 24.2862 442.769 24.1782C442.877 24.0702 443.009 24.0162 443.165 24.0162C443.315 24.0162 443.441 24.0702 443.543 24.1782C443.651 24.2862 443.705 24.4182 443.705 24.5742C443.705 24.7302 443.651 24.8622 443.543 24.9702C443.441 25.0782 443.315 25.1322 443.165 25.1322ZM443.561 25.9332V30.8652H442.742V25.9332H443.561ZM449.286 28.2102C449.286 28.3662 449.277 28.5312 449.259 28.7052H445.317C445.347 29.1912 445.512 29.5722 445.812 29.8482C446.118 30.1182 446.487 30.2532 446.919 30.2532C447.273 30.2532 447.567 30.1722 447.801 30.0102C448.041 29.8422 448.209 29.6202 448.305 29.3442H449.187C449.055 29.8182 448.791 30.2052 448.395 30.5052C447.999 30.7992 447.507 30.9462 446.919 30.9462C446.451 30.9462 446.031 30.8412 445.659 30.6312C445.293 30.4212 445.005 30.1242 444.795 29.7402C444.585 29.3502 444.48 28.9002 444.48 28.3902C444.48 27.8802 444.582 27.4332 444.786 27.0492C444.99 26.6652 445.275 26.3712 445.641 26.1672C446.013 25.9572 446.439 25.8522 446.919 25.8522C447.387 25.8522 447.801 25.9542 448.161 26.1582C448.521 26.3622 448.797 26.6442 448.989 27.0042C449.187 27.3582 449.286 27.7602 449.286 28.2102ZM448.44 28.0392C448.44 27.7272 448.371 27.4602 448.233 27.2382C448.095 27.0102 447.906 26.8392 447.666 26.7252C447.432 26.6052 447.171 26.5452 446.883 26.5452C446.469 26.5452 446.115 26.6772 445.821 26.9412C445.533 27.2052 445.368 27.5712 445.326 28.0392H448.44ZM451.015 24.2052V30.8652H450.196V24.2052H451.015ZM456.74 28.2102C456.74 28.3662 456.731 28.5312 456.713 28.7052H452.771C452.801 29.1912 452.966 29.5722 453.266 29.8482C453.572 30.1182 453.941 30.2532 454.373 30.2532C454.727 30.2532 455.021 30.1722 455.255 30.0102C455.495 29.8422 455.663 29.6202 455.759 29.3442H456.641C456.509 29.8182 456.245 30.2052 455.849 30.5052C455.453 30.7992 454.961 30.9462 454.373 30.9462C453.905 30.9462 453.485 30.8412 453.113 30.6312C452.747 30.4212 452.459 30.1242 452.249 29.7402C452.039 29.3502 451.934 28.9002 451.934 28.3902C451.934 27.8802 452.036 27.4332 452.24 27.0492C452.444 26.6652 452.729 26.3712 453.095 26.1672C453.467 25.9572 453.893 25.8522 454.373 25.8522C454.841 25.8522 455.255 25.9542 455.615 26.1582C455.975 26.3622 456.251 26.6442 456.443 27.0042C456.641 27.3582 456.74 27.7602 456.74 28.2102ZM455.894 28.0392C455.894 27.7272 455.825 27.4602 455.687 27.2382C455.549 27.0102 455.36 26.8392 455.12 26.7252C454.886 26.6052 454.625 26.5452 454.337 26.5452C453.923 26.5452 453.569 26.6772 453.275 26.9412C452.987 27.2052 452.822 27.5712 452.78 28.0392H455.894Z" fill="black"/>
<rect x="466.227" y="17.3652" width="44" height="21" rx="3.5" fill="#F9F9F9"/>
<rect x="466.227" y="17.3652" width="44" height="21" rx="3.5" stroke="#D9D9D9"/>
<mask id="mask2_40000066_44958" style="mask-type:alpha" maskUnits="userSpaceOnUse" x="472" y="20" width="15" height="15">
<rect x="472.227" y="20.8652" width="14" height="14" fill="#D9D9D9"/>
</mask>
<g mask="url(#mask2_40000066_44958)">
<path d="M476.604 31.3652C475.962 31.3652 475.413 31.1368 474.956 30.6798C474.499 30.2229 474.271 29.6736 474.271 29.0319V26.6548C474.271 26.159 474.426 25.7239 474.737 25.3496C475.049 24.9753 475.447 24.7444 475.933 24.6569C476.487 24.55 477.037 24.4746 477.581 24.4309C478.126 24.3871 478.675 24.3652 479.229 24.3652C479.783 24.3652 480.335 24.3871 480.884 24.4309C481.434 24.4746 481.981 24.55 482.525 24.6569C483.011 24.7541 483.41 24.9875 483.721 25.3569C484.032 25.7263 484.188 26.159 484.188 26.6548V29.0319C484.188 29.6736 483.959 30.2229 483.502 30.6798C483.045 31.1368 482.496 31.3652 481.854 31.3652H481.271C481.144 31.3652 481.018 31.3579 480.892 31.3434C480.765 31.3288 480.644 31.2972 480.527 31.2486L479.594 30.9277C479.477 30.8791 479.356 30.8548 479.229 30.8548C479.103 30.8548 478.981 30.8791 478.865 30.9277L477.931 31.2486C477.815 31.2972 477.693 31.3288 477.567 31.3434C477.44 31.3579 477.314 31.3652 477.188 31.3652H476.604ZM476.604 30.1986H477.188C477.256 30.1986 477.321 30.1937 477.384 30.184C477.448 30.1743 477.508 30.1597 477.567 30.1402C477.849 30.0527 478.123 29.9604 478.391 29.8632C478.658 29.7659 478.938 29.7173 479.229 29.7173C479.521 29.7173 479.803 29.7635 480.075 29.8559C480.347 29.9482 480.619 30.043 480.892 30.1402C480.95 30.1597 481.011 30.1743 481.074 30.184C481.137 30.1937 481.203 30.1986 481.271 30.1986H481.854C482.175 30.1986 482.45 30.0843 482.678 29.8559C482.907 29.6274 483.021 29.3527 483.021 29.0319V26.6548C483.021 26.4409 482.953 26.2562 482.817 26.1007C482.681 25.9451 482.51 25.843 482.306 25.7944C481.801 25.6875 481.293 25.617 480.782 25.5829C480.272 25.5489 479.754 25.5319 479.229 25.5319C478.704 25.5319 478.189 25.5513 477.683 25.5902C477.178 25.6291 476.667 25.6972 476.152 25.7944C475.948 25.8333 475.778 25.9329 475.642 26.0934C475.506 26.2538 475.438 26.4409 475.438 26.6548V29.0319C475.438 29.3527 475.552 29.6274 475.78 29.8559C476.009 30.0843 476.283 30.1986 476.604 30.1986ZM472.812 29.0319V26.6986H473.688V29.0319H472.812ZM484.771 29.0319V26.6986H485.646V29.0319H484.771Z" fill="black"/>
</g>
<path d="M498.104 24.5922L495.737 30.8652H494.792L492.425 24.5922H493.298L495.269 30.0012L497.24 24.5922H498.104ZM502.134 30.8652L500.64 28.3002H499.65V30.8652H498.831V24.5922H500.856C501.33 24.5922 501.729 24.6732 502.053 24.8352C502.383 24.9972 502.629 25.2162 502.791 25.4922C502.953 25.7682 503.034 26.0832 503.034 26.4372C503.034 26.8692 502.908 27.2502 502.656 27.5802C502.41 27.9102 502.038 28.1292 501.54 28.2372L503.115 30.8652H502.134ZM499.65 27.6432H500.856C501.3 27.6432 501.633 27.5352 501.855 27.3192C502.077 27.0972 502.188 26.8032 502.188 26.4372C502.188 26.0652 502.077 25.7772 501.855 25.5732C501.639 25.3692 501.306 25.2672 500.856 25.2672H499.65V27.6432Z" fill="black"/>
</g>
<g opacity="0.5" filter="url(#filter3_d_40000066_44958)">
<rect x="530.982" y="10.7121" width="167.49" height="34.3069" rx="7.74497" fill="white"/>
<rect x="530.982" y="10.7121" width="167.49" height="34.3069" rx="7.74497" stroke="#C0C0C0" stroke-width="0.510067"/>
<path d="M542.822 30.8652L540.239 28.0032V30.8652H539.42V24.5922H540.239V27.4992L542.831 24.5922H543.866L541.022 27.7332L543.893 30.8652H542.822ZM546.787 30.9462C546.325 30.9462 545.905 30.8412 545.527 30.6312C545.155 30.4212 544.861 30.1242 544.645 29.7402C544.435 29.3502 544.33 28.9002 544.33 28.3902C544.33 27.8862 544.438 27.4422 544.654 27.0582C544.876 26.6682 545.176 26.3712 545.554 26.1672C545.932 25.9572 546.355 25.8522 546.823 25.8522C547.291 25.8522 547.714 25.9572 548.092 26.1672C548.47 26.3712 548.767 26.6652 548.983 27.0492C549.205 27.4332 549.316 27.8802 549.316 28.3902C549.316 28.9002 549.202 29.3502 548.974 29.7402C548.752 30.1242 548.449 30.4212 548.065 30.6312C547.681 30.8412 547.255 30.9462 546.787 30.9462ZM546.787 30.2262C547.081 30.2262 547.357 30.1572 547.615 30.0192C547.873 29.8812 548.08 29.6742 548.236 29.3982C548.398 29.1222 548.479 28.7862 548.479 28.3902C548.479 27.9942 548.401 27.6582 548.245 27.3822C548.089 27.1062 547.885 26.9022 547.633 26.7702C547.381 26.6322 547.108 26.5632 546.814 26.5632C546.514 26.5632 546.238 26.6322 545.986 26.7702C545.74 26.9022 545.542 27.1062 545.392 27.3822C545.242 27.6582 545.167 27.9942 545.167 28.3902C545.167 28.7922 545.239 29.1312 545.383 29.4072C545.533 29.6832 545.731 29.8902 545.977 30.0282C546.223 30.1602 546.493 30.2262 546.787 30.2262ZM552.256 25.8522C552.682 25.8522 553.054 25.9452 553.372 26.1312C553.696 26.3172 553.936 26.5512 554.092 26.8332V25.9332H554.92V30.9732C554.92 31.4232 554.824 31.8222 554.632 32.1702C554.44 32.5242 554.164 32.8002 553.804 32.9982C553.45 33.1962 553.036 33.2952 552.562 33.2952C551.914 33.2952 551.374 33.1422 550.942 32.8362C550.51 32.5302 550.255 32.1132 550.177 31.5852H550.987C551.077 31.8852 551.263 32.1252 551.545 32.3052C551.827 32.4912 552.166 32.5842 552.562 32.5842C553.012 32.5842 553.378 32.4432 553.66 32.1612C553.948 31.8792 554.092 31.4832 554.092 30.9732V29.9382C553.93 30.2262 553.69 30.4662 553.372 30.6582C553.054 30.8502 552.682 30.9462 552.256 30.9462C551.818 30.9462 551.419 30.8382 551.059 30.6222C550.705 30.4062 550.426 30.1032 550.222 29.7132C550.018 29.3232 549.916 28.8792 549.916 28.3812C549.916 27.8772 550.018 27.4362 550.222 27.0582C550.426 26.6742 550.705 26.3772 551.059 26.1672C551.419 25.9572 551.818 25.8522 552.256 25.8522ZM554.092 28.3902C554.092 28.0182 554.017 27.6942 553.867 27.4182C553.717 27.1422 553.513 26.9322 553.255 26.7882C553.003 26.6382 552.724 26.5632 552.418 26.5632C552.112 26.5632 551.833 26.6352 551.581 26.7792C551.329 26.9232 551.128 27.1332 550.978 27.4092C550.828 27.6852 550.753 28.0092 550.753 28.3812C550.753 28.7592 550.828 29.0892 550.978 29.3712C551.128 29.6472 551.329 29.8602 551.581 30.0102C551.833 30.1542 552.112 30.2262 552.418 30.2262C552.724 30.2262 553.003 30.1542 553.255 30.0102C553.513 29.8602 553.717 29.6472 553.867 29.3712C554.017 29.0892 554.092 28.7622 554.092 28.3902ZM558.536 25.8432C559.136 25.8432 559.622 26.0262 559.994 26.3922C560.366 26.7522 560.552 27.2742 560.552 27.9582V30.8652H559.742V28.0752C559.742 27.5832 559.619 27.2082 559.373 26.9502C559.127 26.6862 558.791 26.5542 558.365 26.5542C557.933 26.5542 557.588 26.6892 557.33 26.9592C557.078 27.2292 556.952 27.6222 556.952 28.1382V30.8652H556.133V25.9332H556.952V26.6352C557.114 26.3832 557.333 26.1882 557.609 26.0502C557.891 25.9122 558.2 25.8432 558.536 25.8432ZM562.142 25.1322C561.986 25.1322 561.854 25.0782 561.746 24.9702C561.638 24.8622 561.584 24.7302 561.584 24.5742C561.584 24.4182 561.638 24.2862 561.746 24.1782C561.854 24.0702 561.986 24.0162 562.142 24.0162C562.292 24.0162 562.418 24.0702 562.52 24.1782C562.628 24.2862 562.682 24.4182 562.682 24.5742C562.682 24.7302 562.628 24.8622 562.52 24.9702C562.418 25.0782 562.292 25.1322 562.142 25.1322ZM562.538 25.9332V30.8652H561.719V25.9332H562.538ZM564.762 26.6082V29.5152C564.762 29.7552 564.813 29.9262 564.915 30.0282C565.017 30.1242 565.194 30.1722 565.446 30.1722H566.049V30.8652H565.311C564.855 30.8652 564.513 30.7602 564.285 30.5502C564.057 30.3402 563.943 29.9952 563.943 29.5152V26.6082H563.304V25.9332H563.943V24.6912H564.762V25.9332H566.049V26.6082H564.762ZM567.293 25.1322C567.137 25.1322 567.005 25.0782 566.897 24.9702C566.789 24.8622 566.735 24.7302 566.735 24.5742C566.735 24.4182 566.789 24.2862 566.897 24.1782C567.005 24.0702 567.137 24.0162 567.293 24.0162C567.443 24.0162 567.569 24.0702 567.671 24.1782C567.779 24.2862 567.833 24.4182 567.833 24.5742C567.833 24.7302 567.779 24.8622 567.671 24.9702C567.569 25.0782 567.443 25.1322 567.293 25.1322ZM567.689 25.9332V30.8652H566.87V25.9332H567.689ZM571.065 30.9462C570.603 30.9462 570.183 30.8412 569.805 30.6312C569.433 30.4212 569.139 30.1242 568.923 29.7402C568.713 29.3502 568.608 28.9002 568.608 28.3902C568.608 27.8862 568.716 27.4422 568.932 27.0582C569.154 26.6682 569.454 26.3712 569.832 26.1672C570.21 25.9572 570.633 25.8522 571.101 25.8522C571.569 25.8522 571.992 25.9572 572.37 26.1672C572.748 26.3712 573.045 26.6652 573.261 27.0492C573.483 27.4332 573.594 27.8802 573.594 28.3902C573.594 28.9002 573.48 29.3502 573.252 29.7402C573.03 30.1242 572.727 30.4212 572.343 30.6312C571.959 30.8412 571.533 30.9462 571.065 30.9462ZM571.065 30.2262C571.359 30.2262 571.635 30.1572 571.893 30.0192C572.151 29.8812 572.358 29.6742 572.514 29.3982C572.676 29.1222 572.757 28.7862 572.757 28.3902C572.757 27.9942 572.679 27.6582 572.523 27.3822C572.367 27.1062 572.163 26.9022 571.911 26.7702C571.659 26.6322 571.386 26.5632 571.092 26.5632C570.792 26.5632 570.516 26.6322 570.264 26.7702C570.018 26.9022 569.82 27.1062 569.67 27.3822C569.52 27.6582 569.445 27.9942 569.445 28.3902C569.445 28.7922 569.517 29.1312 569.661 29.4072C569.811 29.6832 570.009 29.8902 570.255 30.0282C570.501 30.1602 570.771 30.2262 571.065 30.2262ZM576.903 25.8432C577.503 25.8432 577.989 26.0262 578.361 26.3922C578.733 26.7522 578.919 27.2742 578.919 27.9582V30.8652H578.109V28.0752C578.109 27.5832 577.986 27.2082 577.74 26.9502C577.494 26.6862 577.158 26.5542 576.732 26.5542C576.3 26.5542 575.955 26.6892 575.697 26.9592C575.445 27.2292 575.319 27.6222 575.319 28.1382V30.8652H574.5V25.9332H575.319V26.6352C575.481 26.3832 575.7 26.1882 575.976 26.0502C576.258 25.9122 576.567 25.8432 576.903 25.8432ZM587.129 30.8652L586.31 30.0372C586.004 30.3552 585.677 30.5922 585.329 30.7482C584.981 30.8982 584.588 30.9732 584.15 30.9732C583.718 30.9732 583.334 30.8952 582.998 30.7392C582.668 30.5832 582.41 30.3612 582.224 30.0732C582.044 29.7852 581.954 29.4492 581.954 29.0652C581.954 28.6272 582.077 28.2432 582.323 27.9132C582.575 27.5772 582.944 27.3132 583.43 27.1212C583.238 26.8932 583.1 26.6832 583.016 26.4912C582.932 26.2992 582.89 26.0892 582.89 25.8612C582.89 25.5972 582.956 25.3602 583.088 25.1502C583.226 24.9342 583.421 24.7662 583.673 24.6462C583.925 24.5262 584.216 24.4662 584.546 24.4662C584.87 24.4662 585.152 24.5292 585.392 24.6552C585.632 24.7812 585.812 24.9582 585.932 25.1862C586.052 25.4082 586.106 25.6572 586.094 25.9332H585.275C585.281 25.6872 585.212 25.4952 585.068 25.3572C584.924 25.2132 584.738 25.1412 584.51 25.1412C584.27 25.1412 584.075 25.2102 583.925 25.3482C583.781 25.4802 583.709 25.6512 583.709 25.8612C583.709 26.0412 583.757 26.2152 583.853 26.3832C583.955 26.5512 584.123 26.7582 584.357 27.0042L586.229 28.8852L586.391 28.6332L587.003 27.6072H587.885L587.147 28.8852C587.045 29.0652 586.925 29.2542 586.787 29.4522L588.2 30.8652H587.129ZM584.15 30.2712C584.474 30.2712 584.765 30.2082 585.023 30.0822C585.287 29.9562 585.536 29.7612 585.77 29.4972L583.925 27.6432C583.157 27.9372 582.773 28.4022 582.773 29.0382C582.773 29.3922 582.899 29.6862 583.151 29.9202C583.409 30.1542 583.742 30.2712 584.15 30.2712ZM594.166 27.6342C594.394 27.6702 594.601 27.7632 594.787 27.9132C594.979 28.0632 595.129 28.2492 595.237 28.4712C595.351 28.6932 595.408 28.9302 595.408 29.1822C595.408 29.5002 595.327 29.7882 595.165 30.0462C595.003 30.2982 594.766 30.4992 594.454 30.6492C594.148 30.7932 593.785 30.8652 593.365 30.8652H591.025V24.5922H593.275C593.701 24.5922 594.064 24.6642 594.364 24.8082C594.664 24.9462 594.889 25.1352 595.039 25.3752C595.189 25.6152 595.264 25.8852 595.264 26.1852C595.264 26.5572 595.162 26.8662 594.958 27.1122C594.76 27.3522 594.496 27.5262 594.166 27.6342ZM591.844 27.3012H593.221C593.605 27.3012 593.902 27.2112 594.112 27.0312C594.322 26.8512 594.427 26.6022 594.427 26.2842C594.427 25.9662 594.322 25.7172 594.112 25.5372C593.902 25.3572 593.599 25.2672 593.203 25.2672H591.844V27.3012ZM593.293 30.1902C593.701 30.1902 594.019 30.0942 594.247 29.9022C594.475 29.7102 594.589 29.4432 594.589 29.1012C594.589 28.7532 594.469 28.4802 594.229 28.2822C593.989 28.0782 593.668 27.9762 593.266 27.9762H591.844V30.1902H593.293ZM600.873 28.2102C600.873 28.3662 600.864 28.5312 600.846 28.7052H596.904C596.934 29.1912 597.099 29.5722 597.399 29.8482C597.705 30.1182 598.074 30.2532 598.506 30.2532C598.86 30.2532 599.154 30.1722 599.388 30.0102C599.628 29.8422 599.796 29.6202 599.892 29.3442H600.774C600.642 29.8182 600.378 30.2052 599.982 30.5052C599.586 30.7992 599.094 30.9462 598.506 30.9462C598.038 30.9462 597.618 30.8412 597.246 30.6312C596.88 30.4212 596.592 30.1242 596.382 29.7402C596.172 29.3502 596.067 28.9002 596.067 28.3902C596.067 27.8802 596.169 27.4332 596.373 27.0492C596.577 26.6652 596.862 26.3712 597.228 26.1672C597.6 25.9572 598.026 25.8522 598.506 25.8522C598.974 25.8522 599.388 25.9542 599.748 26.1582C600.108 26.3622 600.384 26.6442 600.576 27.0042C600.774 27.3582 600.873 27.7602 600.873 28.2102ZM600.027 28.0392C600.027 27.7272 599.958 27.4602 599.82 27.2382C599.682 27.0102 599.493 26.8392 599.253 26.7252C599.019 26.6052 598.758 26.5452 598.47 26.5452C598.056 26.5452 597.702 26.6772 597.408 26.9412C597.12 27.2052 596.955 27.5712 596.913 28.0392H600.027ZM608.353 25.9332L606.814 30.8652H605.968L604.78 26.9502L603.592 30.8652H602.746L601.198 25.9332H602.035L603.169 30.0732L604.393 25.9332H605.23L606.427 30.0822L607.543 25.9332H608.353ZM613.495 28.2102C613.495 28.3662 613.486 28.5312 613.468 28.7052H609.526C609.556 29.1912 609.721 29.5722 610.021 29.8482C610.327 30.1182 610.696 30.2532 611.128 30.2532C611.482 30.2532 611.776 30.1722 612.01 30.0102C612.25 29.8422 612.418 29.6202 612.514 29.3442H613.396C613.264 29.8182 613 30.2052 612.604 30.5052C612.208 30.7992 611.716 30.9462 611.128 30.9462C610.66 30.9462 610.24 30.8412 609.868 30.6312C609.502 30.4212 609.214 30.1242 609.004 29.7402C608.794 29.3502 608.689 28.9002 608.689 28.3902C608.689 27.8802 608.791 27.4332 608.995 27.0492C609.199 26.6652 609.484 26.3712 609.85 26.1672C610.222 25.9572 610.648 25.8522 611.128 25.8522C611.596 25.8522 612.01 25.9542 612.37 26.1582C612.73 26.3622 613.006 26.6442 613.198 27.0042C613.396 27.3582 613.495 27.7602 613.495 28.2102ZM612.649 28.0392C612.649 27.7272 612.58 27.4602 612.442 27.2382C612.304 27.0102 612.115 26.8392 611.875 26.7252C611.641 26.6052 611.38 26.5452 611.092 26.5452C610.678 26.5452 610.324 26.6772 610.03 26.9412C609.742 27.2052 609.577 27.5712 609.535 28.0392H612.649ZM616.439 25.8522C616.865 25.8522 617.237 25.9452 617.555 26.1312C617.879 26.3172 618.119 26.5512 618.275 26.8332V25.9332H619.103V30.9732C619.103 31.4232 619.007 31.8222 618.815 32.1702C618.623 32.5242 618.347 32.8002 617.987 32.9982C617.633 33.1962 617.219 33.2952 616.745 33.2952C616.097 33.2952 615.557 33.1422 615.125 32.8362C614.693 32.5302 614.438 32.1132 614.36 31.5852H615.17C615.26 31.8852 615.446 32.1252 615.728 32.3052C616.01 32.4912 616.349 32.5842 616.745 32.5842C617.195 32.5842 617.561 32.4432 617.843 32.1612C618.131 31.8792 618.275 31.4832 618.275 30.9732V29.9382C618.113 30.2262 617.873 30.4662 617.555 30.6582C617.237 30.8502 616.865 30.9462 616.439 30.9462C616.001 30.9462 615.602 30.8382 615.242 30.6222C614.888 30.4062 614.609 30.1032 614.405 29.7132C614.201 29.3232 614.099 28.8792 614.099 28.3812C614.099 27.8772 614.201 27.4362 614.405 27.0582C614.609 26.6742 614.888 26.3772 615.242 26.1672C615.602 25.9572 616.001 25.8522 616.439 25.8522ZM618.275 28.3902C618.275 28.0182 618.2 27.6942 618.05 27.4182C617.9 27.1422 617.696 26.9322 617.438 26.7882C617.186 26.6382 616.907 26.5632 616.601 26.5632C616.295 26.5632 616.016 26.6352 615.764 26.7792C615.512 26.9232 615.311 27.1332 615.161 27.4092C615.011 27.6852 614.936 28.0092 614.936 28.3812C614.936 28.7592 615.011 29.0892 615.161 29.3712C615.311 29.6472 615.512 29.8602 615.764 30.0102C616.016 30.1542 616.295 30.2262 616.601 30.2262C616.907 30.2262 617.186 30.1542 617.438 30.0102C617.696 29.8602 617.9 29.6472 618.05 29.3712C618.2 29.0892 618.275 28.7622 618.275 28.3902ZM624.69 25.9332V30.8652H623.871V30.1362C623.715 30.3882 623.496 30.5862 623.214 30.7302C622.938 30.8682 622.632 30.9372 622.296 30.9372C621.912 30.9372 621.567 30.8592 621.261 30.7032C620.955 30.5412 620.712 30.3012 620.532 29.9832C620.358 29.6652 620.271 29.2782 620.271 28.8222V25.9332H621.081V28.7142C621.081 29.2002 621.204 29.5752 621.45 29.8392C621.696 30.0972 622.032 30.2262 622.458 30.2262C622.896 30.2262 623.241 30.0912 623.493 29.8212C623.745 29.5512 623.871 29.1582 623.871 28.6422V25.9332H624.69ZM628.305 25.8432C628.905 25.8432 629.391 26.0262 629.763 26.3922C630.135 26.7522 630.321 27.2742 630.321 27.9582V30.8652H629.511V28.0752C629.511 27.5832 629.388 27.2082 629.142 26.9502C628.896 26.6862 628.56 26.5542 628.134 26.5542C627.702 26.5542 627.357 26.6892 627.099 26.9592C626.847 27.2292 626.721 27.6222 626.721 28.1382V30.8652H625.902V25.9332H626.721V26.6352C626.883 26.3832 627.102 26.1882 627.378 26.0502C627.66 25.9122 627.969 25.8432 628.305 25.8432ZM633.522 25.8522C633.948 25.8522 634.32 25.9452 634.638 26.1312C634.962 26.3172 635.202 26.5512 635.358 26.8332V25.9332H636.186V30.9732C636.186 31.4232 636.09 31.8222 635.898 32.1702C635.706 32.5242 635.43 32.8002 635.07 32.9982C634.716 33.1962 634.302 33.2952 633.828 33.2952C633.18 33.2952 632.64 33.1422 632.208 32.8362C631.776 32.5302 631.521 32.1132 631.443 31.5852H632.253C632.343 31.8852 632.529 32.1252 632.811 32.3052C633.093 32.4912 633.432 32.5842 633.828 32.5842C634.278 32.5842 634.644 32.4432 634.926 32.1612C635.214 31.8792 635.358 31.4832 635.358 30.9732V29.9382C635.196 30.2262 634.956 30.4662 634.638 30.6582C634.32 30.8502 633.948 30.9462 633.522 30.9462C633.084 30.9462 632.685 30.8382 632.325 30.6222C631.971 30.4062 631.692 30.1032 631.488 29.7132C631.284 29.3232 631.182 28.8792 631.182 28.3812C631.182 27.8772 631.284 27.4362 631.488 27.0582C631.692 26.6742 631.971 26.3772 632.325 26.1672C632.685 25.9572 633.084 25.8522 633.522 25.8522ZM635.358 28.3902C635.358 28.0182 635.283 27.6942 635.133 27.4182C634.983 27.1422 634.779 26.9322 634.521 26.7882C634.269 26.6382 633.99 26.5632 633.684 26.5632C633.378 26.5632 633.099 26.6352 632.847 26.7792C632.595 26.9232 632.394 27.1332 632.244 27.4092C632.094 27.6852 632.019 28.0092 632.019 28.3812C632.019 28.7592 632.094 29.0892 632.244 29.3712C632.394 29.6472 632.595 29.8602 632.847 30.0102C633.099 30.1542 633.378 30.2262 633.684 30.2262C633.99 30.2262 634.269 30.1542 634.521 30.0102C634.779 29.8602 634.983 29.6472 635.133 29.3712C635.283 29.0892 635.358 28.7622 635.358 28.3902Z" fill="black"/>
<rect x="645.727" y="16.8652" width="45" height="22" rx="4" fill="#D9D9D9"/>
<mask id="mask3_40000066_44958" style="mask-type:alpha" maskUnits="userSpaceOnUse" x="652" y="20" width="15" height="15">
<rect x="652.227" y="20.8652" width="14" height="14" fill="#D9D9D9"/>
</mask>
<g mask="url(#mask3_40000066_44958)">
<path d="M658.641 32.226L655.724 30.5489C655.539 30.4419 655.396 30.301 655.294 30.126C655.192 29.951 655.141 29.7565 655.141 29.5426V26.1885C655.141 25.9746 655.192 25.7801 655.294 25.6051C655.396 25.4301 655.539 25.2892 655.724 25.1822L658.641 23.5051C658.825 23.3982 659.02 23.3447 659.224 23.3447C659.428 23.3447 659.623 23.3982 659.807 23.5051L662.724 25.1822C662.909 25.2892 663.052 25.4301 663.154 25.6051C663.256 25.7801 663.307 25.9746 663.307 26.1885V29.5426C663.307 29.7565 663.256 29.951 663.154 30.126C663.052 30.301 662.909 30.4419 662.724 30.5489L659.807 32.226C659.623 32.3329 659.428 32.3864 659.224 32.3864C659.02 32.3864 658.825 32.3329 658.641 32.226ZM658.641 30.8843V28.201L656.307 26.8447V29.5426L658.641 30.8843ZM659.807 30.8843L662.141 29.5426V26.8447L659.807 28.201V30.8843ZM653.391 24.9489V23.1989C653.391 22.8781 653.505 22.6034 653.733 22.3749C653.962 22.1465 654.236 22.0322 654.557 22.0322H656.307V23.1989H654.557V24.9489H653.391ZM656.307 33.6989H654.557C654.236 33.6989 653.962 33.5847 653.733 33.3562C653.505 33.1277 653.391 32.8531 653.391 32.5322V30.7822H654.557V32.5322H656.307V33.6989ZM662.141 33.6989V32.5322H663.891V30.7822H665.057V32.5322C665.057 32.8531 664.943 33.1277 664.715 33.3562C664.486 33.5847 664.211 33.6989 663.891 33.6989H662.141ZM663.891 24.9489V23.1989H662.141V22.0322H663.891C664.211 22.0322 664.486 22.1465 664.715 22.3749C664.943 22.6034 665.057 22.8781 665.057 23.1989V24.9489H663.891ZM659.224 27.1947L661.528 25.8385L659.224 24.5114L656.92 25.8385L659.224 27.1947Z" fill="#1C1B1F"/>
</g>
<path d="M676.628 29.4702H673.892L673.388 30.8652H672.524L674.792 24.6282H675.737L677.996 30.8652H677.132L676.628 29.4702ZM676.394 28.8042L675.26 25.6362L674.126 28.8042H676.394ZM682.116 30.8652L680.622 28.3002H679.632V30.8652H678.813V24.5922H680.838C681.312 24.5922 681.711 24.6732 682.035 24.8352C682.365 24.9972 682.611 25.2162 682.773 25.4922C682.935 25.7682 683.016 26.0832 683.016 26.4372C683.016 26.8692 682.89 27.2502 682.638 27.5802C682.392 27.9102 682.02 28.1292 681.522 28.2372L683.097 30.8652H682.116ZM679.632 27.6432H680.838C681.282 27.6432 681.615 27.5352 681.837 27.3192C682.059 27.0972 682.17 26.8032 682.17 26.4372C682.17 26.0652 682.059 25.7772 681.837 25.5732C681.621 25.3692 681.288 25.2672 680.838 25.2672H679.632V27.6432Z" fill="black"/>
</g>
<g opacity="0.5" filter="url(#filter4_d_40000066_44958)">
<rect x="710.982" y="10.7121" width="153.49" height="34.3069" rx="7.74497" fill="white"/>
<rect x="710.982" y="10.7121" width="153.49" height="34.3069" rx="7.74497" stroke="#C0C0C0" stroke-width="0.510067"/>
<path d="M721.409 30.9282C720.995 30.9282 720.623 30.8562 720.293 30.7122C719.969 30.5622 719.714 30.3582 719.528 30.1002C719.342 29.8362 719.246 29.5332 719.24 29.1912H720.113C720.143 29.4852 720.263 29.7342 720.473 29.9382C720.689 30.1362 721.001 30.2352 721.409 30.2352C721.799 30.2352 722.105 30.1392 722.327 29.9472C722.555 29.7492 722.669 29.4972 722.669 29.1912C722.669 28.9512 722.603 28.7562 722.471 28.6062C722.339 28.4562 722.174 28.3422 721.976 28.2642C721.778 28.1862 721.511 28.1022 721.175 28.0122C720.761 27.9042 720.428 27.7962 720.176 27.6882C719.93 27.5802 719.717 27.4122 719.537 27.1842C719.363 26.9502 719.276 26.6382 719.276 26.2482C719.276 25.9062 719.363 25.6032 719.537 25.3392C719.711 25.0752 719.954 24.8712 720.266 24.7272C720.584 24.5832 720.947 24.5112 721.355 24.5112C721.943 24.5112 722.423 24.6582 722.795 24.9522C723.173 25.2462 723.386 25.6362 723.434 26.1222H722.534C722.504 25.8822 722.378 25.6722 722.156 25.4922C721.934 25.3062 721.64 25.2132 721.274 25.2132C720.932 25.2132 720.653 25.3032 720.437 25.4832C720.221 25.6572 720.113 25.9032 720.113 26.2212C720.113 26.4492 720.176 26.6352 720.302 26.7792C720.434 26.9232 720.593 27.0342 720.779 27.1122C720.971 27.1842 721.238 27.2682 721.58 27.3642C721.994 27.4782 722.327 27.5922 722.579 27.7062C722.831 27.8142 723.047 27.9852 723.227 28.2192C723.407 28.4472 723.497 28.7592 723.497 29.1552C723.497 29.4612 723.416 29.7492 723.254 30.0192C723.092 30.2892 722.852 30.5082 722.534 30.6762C722.216 30.8442 721.841 30.9282 721.409 30.9282ZM725.35 26.8422C725.512 26.5602 725.752 26.3262 726.07 26.1402C726.394 25.9482 726.769 25.8522 727.195 25.8522C727.633 25.8522 728.029 25.9572 728.383 26.1672C728.743 26.3772 729.025 26.6742 729.229 27.0582C729.433 27.4362 729.535 27.8772 729.535 28.3812C729.535 28.8792 729.433 29.3232 729.229 29.7132C729.025 30.1032 728.743 30.4062 728.383 30.6222C728.029 30.8382 727.633 30.9462 727.195 30.9462C726.775 30.9462 726.403 30.8532 726.079 30.6672C725.761 30.4752 725.518 30.2382 725.35 29.9562V33.2052H724.531V25.9332H725.35V26.8422ZM728.698 28.3812C728.698 28.0092 728.623 27.6852 728.473 27.4092C728.323 27.1332 728.119 26.9232 727.861 26.7792C727.609 26.6352 727.33 26.5632 727.024 26.5632C726.724 26.5632 726.445 26.6382 726.187 26.7882C725.935 26.9322 725.731 27.1452 725.575 27.4272C725.425 27.7032 725.35 28.0242 725.35 28.3902C725.35 28.7622 725.425 29.0892 725.575 29.3712C725.731 29.6472 725.935 29.8602 726.187 30.0102C726.445 30.1542 726.724 30.2262 727.024 30.2262C727.33 30.2262 727.609 30.1542 727.861 30.0102C728.119 29.8602 728.323 29.6472 728.473 29.3712C728.623 29.0892 728.698 28.7592 728.698 28.3812ZM730.865 25.1322C730.709 25.1322 730.577 25.0782 730.469 24.9702C730.361 24.8622 730.307 24.7302 730.307 24.5742C730.307 24.4182 730.361 24.2862 730.469 24.1782C730.577 24.0702 730.709 24.0162 730.865 24.0162C731.015 24.0162 731.141 24.0702 731.243 24.1782C731.351 24.2862 731.405 24.4182 731.405 24.5742C731.405 24.7302 731.351 24.8622 731.243 24.9702C731.141 25.0782 731.015 25.1322 730.865 25.1322ZM731.261 25.9332V30.8652H730.442V25.9332H731.261ZM736.986 28.2102C736.986 28.3662 736.977 28.5312 736.959 28.7052H733.017C733.047 29.1912 733.212 29.5722 733.512 29.8482C733.818 30.1182 734.187 30.2532 734.619 30.2532C734.973 30.2532 735.267 30.1722 735.501 30.0102C735.741 29.8422 735.909 29.6202 736.005 29.3442H736.887C736.755 29.8182 736.491 30.2052 736.095 30.5052C735.699 30.7992 735.207 30.9462 734.619 30.9462C734.151 30.9462 733.731 30.8412 733.359 30.6312C732.993 30.4212 732.705 30.1242 732.495 29.7402C732.285 29.3502 732.18 28.9002 732.18 28.3902C732.18 27.8802 732.282 27.4332 732.486 27.0492C732.69 26.6652 732.975 26.3712 733.341 26.1672C733.713 25.9572 734.139 25.8522 734.619 25.8522C735.087 25.8522 735.501 25.9542 735.861 26.1582C736.221 26.3622 736.497 26.6442 736.689 27.0042C736.887 27.3582 736.986 27.7602 736.986 28.2102ZM736.14 28.0392C736.14 27.7272 736.071 27.4602 735.933 27.2382C735.795 27.0102 735.606 26.8392 735.366 26.7252C735.132 26.6052 734.871 26.5452 734.583 26.5452C734.169 26.5452 733.815 26.6772 733.521 26.9412C733.233 27.2052 733.068 27.5712 733.026 28.0392H736.14ZM738.715 24.2052V30.8652H737.896V24.2052H738.715ZM746.542 25.9332V30.8652H745.723V30.1362C745.567 30.3882 745.348 30.5862 745.066 30.7302C744.79 30.8682 744.484 30.9372 744.148 30.9372C743.764 30.9372 743.419 30.8592 743.113 30.7032C742.807 30.5412 742.564 30.3012 742.384 29.9832C742.21 29.6652 742.123 29.2782 742.123 28.8222V25.9332H742.933V28.7142C742.933 29.2002 743.056 29.5752 743.302 29.8392C743.548 30.0972 743.884 30.2262 744.31 30.2262C744.748 30.2262 745.093 30.0912 745.345 29.8212C745.597 29.5512 745.723 29.1582 745.723 28.6422V25.9332H746.542ZM750.157 25.8432C750.757 25.8432 751.243 26.0262 751.615 26.3922C751.987 26.7522 752.173 27.2742 752.173 27.9582V30.8652H751.363V28.0752C751.363 27.5832 751.24 27.2082 750.994 26.9502C750.748 26.6862 750.412 26.5542 749.986 26.5542C749.554 26.5542 749.209 26.6892 748.951 26.9592C748.699 27.2292 748.573 27.6222 748.573 28.1382V30.8652H747.754V25.9332H748.573V26.6352C748.735 26.3832 748.954 26.1882 749.23 26.0502C749.512 25.9122 749.821 25.8432 750.157 25.8432ZM753.034 28.3812C753.034 27.8772 753.136 27.4362 753.34 27.0582C753.544 26.6742 753.823 26.3772 754.177 26.1672C754.537 25.9572 754.939 25.8522 755.383 25.8522C755.767 25.8522 756.124 25.9422 756.454 26.1222C756.784 26.2962 757.036 26.5272 757.21 26.8152V24.2052H758.038V30.8652H757.21V29.9382C757.048 30.2322 756.808 30.4752 756.49 30.6672C756.172 30.8532 755.8 30.9462 755.374 30.9462C754.936 30.9462 754.537 30.8382 754.177 30.6222C753.823 30.4062 753.544 30.1032 753.34 29.7132C753.136 29.3232 753.034 28.8792 753.034 28.3812ZM757.21 28.3902C757.21 28.0182 757.135 27.6942 756.985 27.4182C756.835 27.1422 756.631 26.9322 756.373 26.7882C756.121 26.6382 755.842 26.5632 755.536 26.5632C755.23 26.5632 754.951 26.6352 754.699 26.7792C754.447 26.9232 754.246 27.1332 754.096 27.4092C753.946 27.6852 753.871 28.0092 753.871 28.3812C753.871 28.7592 753.946 29.0892 754.096 29.3712C754.246 29.6472 754.447 29.8602 754.699 30.0102C754.951 30.1542 755.23 30.2262 755.536 30.2262C755.842 30.2262 756.121 30.1542 756.373 30.0102C756.631 29.8602 756.835 29.6472 756.985 29.3712C757.135 29.0892 757.21 28.7622 757.21 28.3902ZM765.187 29.4702H762.451L761.947 30.8652H761.083L763.351 24.6282H764.296L766.555 30.8652H765.691L765.187 29.4702ZM764.953 28.8042L763.819 25.6362L762.685 28.8042H764.953ZM771.747 25.9332V30.8652H770.928V30.1362C770.772 30.3882 770.553 30.5862 770.271 30.7302C769.995 30.8682 769.689 30.9372 769.353 30.9372C768.969 30.9372 768.624 30.8592 768.318 30.7032C768.012 30.5412 767.769 30.3012 767.589 29.9832C767.415 29.6652 767.328 29.2782 767.328 28.8222V25.9332H768.138V28.7142C768.138 29.2002 768.261 29.5752 768.507 29.8392C768.753 30.0972 769.089 30.2262 769.515 30.2262C769.953 30.2262 770.298 30.0912 770.55 29.8212C770.802 29.5512 770.928 29.1582 770.928 28.6422V25.9332H771.747ZM774.704 30.9462C774.326 30.9462 773.987 30.8832 773.687 30.7572C773.387 30.6252 773.15 30.4452 772.976 30.2172C772.802 29.9832 772.706 29.7162 772.688 29.4162H773.534C773.558 29.6622 773.672 29.8632 773.876 30.0192C774.086 30.1752 774.359 30.2532 774.695 30.2532C775.007 30.2532 775.253 30.1842 775.433 30.0462C775.613 29.9082 775.703 29.7342 775.703 29.5242C775.703 29.3082 775.607 29.1492 775.415 29.0472C775.223 28.9392 774.926 28.8342 774.524 28.7322C774.158 28.6362 773.858 28.5402 773.624 28.4442C773.396 28.3422 773.198 28.1952 773.03 28.0032C772.868 27.8052 772.787 27.5472 772.787 27.2292C772.787 26.9772 772.862 26.7462 773.012 26.5362C773.162 26.3262 773.375 26.1612 773.651 26.0412C773.927 25.9152 774.242 25.8522 774.596 25.8522C775.142 25.8522 775.583 25.9902 775.919 26.2662C776.255 26.5422 776.435 26.9202 776.459 27.4002H775.64C775.622 27.1422 775.517 26.9352 775.325 26.7792C775.139 26.6232 774.887 26.5452 774.569 26.5452C774.275 26.5452 774.041 26.6082 773.867 26.7342C773.693 26.8602 773.606 27.0252 773.606 27.2292C773.606 27.3912 773.657 27.5262 773.759 27.6342C773.867 27.7362 773.999 27.8202 774.155 27.8862C774.317 27.9462 774.539 28.0152 774.821 28.0932C775.175 28.1892 775.463 28.2852 775.685 28.3812C775.907 28.4712 776.096 28.6092 776.252 28.7952C776.414 28.9812 776.498 29.2242 776.504 29.5242C776.504 29.7942 776.429 30.0372 776.279 30.2532C776.129 30.4692 775.916 30.6402 775.64 30.7662C775.37 30.8862 775.058 30.9462 774.704 30.9462ZM777.184 28.3812C777.184 27.8772 777.286 27.4362 777.49 27.0582C777.694 26.6742 777.973 26.3772 778.327 26.1672C778.687 25.9572 779.089 25.8522 779.533 25.8522C779.917 25.8522 780.274 25.9422 780.604 26.1222C780.934 26.2962 781.186 26.5272 781.36 26.8152V24.2052H782.188V30.8652H781.36V29.9382C781.198 30.2322 780.958 30.4752 780.64 30.6672C780.322 30.8532 779.95 30.9462 779.524 30.9462C779.086 30.9462 778.687 30.8382 778.327 30.6222C777.973 30.4062 777.694 30.1032 777.49 29.7132C777.286 29.3232 777.184 28.8792 777.184 28.3812ZM781.36 28.3902C781.36 28.0182 781.285 27.6942 781.135 27.4182C780.985 27.1422 780.781 26.9322 780.523 26.7882C780.271 26.6382 779.992 26.5632 779.686 26.5632C779.38 26.5632 779.101 26.6352 778.849 26.7792C778.597 26.9232 778.396 27.1332 778.246 27.4092C778.096 27.6852 778.021 28.0092 778.021 28.3812C778.021 28.7592 778.096 29.0892 778.246 29.3712C778.396 29.6472 778.597 29.8602 778.849 30.0102C779.101 30.1542 779.38 30.2262 779.686 30.2262C779.992 30.2262 780.271 30.1542 780.523 30.0102C780.781 29.8602 780.985 29.6472 781.135 29.3712C781.285 29.0892 781.36 28.7622 781.36 28.3902ZM783.095 28.3812C783.095 27.8772 783.197 27.4362 783.401 27.0582C783.605 26.6742 783.884 26.3772 784.238 26.1672C784.598 25.9572 784.997 25.8522 785.435 25.8522C785.867 25.8522 786.242 25.9452 786.56 26.1312C786.878 26.3172 787.115 26.5512 787.271 26.8332V25.9332H788.099V30.8652H787.271V29.9472C787.109 30.2352 786.866 30.4752 786.542 30.6672C786.224 30.8532 785.852 30.9462 785.426 30.9462C784.988 30.9462 784.592 30.8382 784.238 30.6222C783.884 30.4062 783.605 30.1032 783.401 29.7132C783.197 29.3232 783.095 28.8792 783.095 28.3812ZM787.271 28.3902C787.271 28.0182 787.196 27.6942 787.046 27.4182C786.896 27.1422 786.692 26.9322 786.434 26.7882C786.182 26.6382 785.903 26.5632 785.597 26.5632C785.291 26.5632 785.012 26.6352 784.76 26.7792C784.508 26.9232 784.307 27.1332 784.157 27.4092C784.007 27.6852 783.932 28.0092 783.932 28.3812C783.932 28.7592 784.007 29.0892 784.157 29.3712C784.307 29.6472 784.508 29.8602 784.76 30.0102C785.012 30.1542 785.291 30.2262 785.597 30.2262C785.903 30.2262 786.182 30.1542 786.434 30.0102C786.692 29.8602 786.896 29.6472 787.046 29.3712C787.196 29.0892 787.271 28.7622 787.271 28.3902ZM793.686 25.9332V30.8652H792.867V30.1362C792.711 30.3882 792.492 30.5862 792.21 30.7302C791.934 30.8682 791.628 30.9372 791.292 30.9372C790.908 30.9372 790.563 30.8592 790.257 30.7032C789.951 30.5412 789.708 30.3012 789.528 29.9832C789.354 29.6652 789.267 29.2782 789.267 28.8222V25.9332H790.077V28.7142C790.077 29.2002 790.2 29.5752 790.446 29.8392C790.692 30.0972 791.028 30.2262 791.454 30.2262C791.892 30.2262 792.237 30.0912 792.489 29.8212C792.741 29.5512 792.867 29.1582 792.867 28.6422V25.9332H793.686ZM799.397 28.2102C799.397 28.3662 799.388 28.5312 799.37 28.7052H795.428C795.458 29.1912 795.623 29.5722 795.923 29.8482C796.229 30.1182 796.598 30.2532 797.03 30.2532C797.384 30.2532 797.678 30.1722 797.912 30.0102C798.152 29.8422 798.32 29.6202 798.416 29.3442H799.298C799.166 29.8182 798.902 30.2052 798.506 30.5052C798.11 30.7992 797.618 30.9462 797.03 30.9462C796.562 30.9462 796.142 30.8412 795.77 30.6312C795.404 30.4212 795.116 30.1242 794.906 29.7402C794.696 29.3502 794.591 28.9002 794.591 28.3902C794.591 27.8802 794.693 27.4332 794.897 27.0492C795.101 26.6652 795.386 26.3712 795.752 26.1672C796.124 25.9572 796.55 25.8522 797.03 25.8522C797.498 25.8522 797.912 25.9542 798.272 26.1582C798.632 26.3622 798.908 26.6442 799.1 27.0042C799.298 27.3582 799.397 27.7602 799.397 28.2102ZM798.551 28.0392C798.551 27.7272 798.482 27.4602 798.344 27.2382C798.206 27.0102 798.017 26.8392 797.777 26.7252C797.543 26.6052 797.282 26.5452 796.994 26.5452C796.58 26.5452 796.226 26.6772 795.932 26.9412C795.644 27.2052 795.479 27.5712 795.437 28.0392H798.551ZM801.126 26.7342C801.27 26.4522 801.474 26.2332 801.738 26.0772C802.008 25.9212 802.335 25.8432 802.719 25.8432V26.6892H802.503C801.585 26.6892 801.126 27.1872 801.126 28.1832V30.8652H800.307V25.9332H801.126V26.7342Z" fill="black"/>
<rect x="811.727" y="16.8652" width="45" height="22" rx="4" fill="#737373"/>
<mask id="mask4_40000066_44958" style="mask-type:alpha" maskUnits="userSpaceOnUse" x="818" y="20" width="15" height="15">
<rect x="818.227" y="20.8652" width="14" height="14" fill="#D9D9D9"/>
</mask>
<g mask="url(#mask4_40000066_44958)">
<path d="M822.604 31.3652C821.962 31.3652 821.413 31.1368 820.956 30.6798C820.499 30.2229 820.271 29.6736 820.271 29.0319V26.6548C820.271 26.159 820.426 25.7239 820.737 25.3496C821.049 24.9753 821.447 24.7444 821.933 24.6569C822.487 24.55 823.037 24.4746 823.581 24.4309C824.126 24.3871 824.675 24.3652 825.229 24.3652C825.783 24.3652 826.335 24.3871 826.884 24.4309C827.434 24.4746 827.981 24.55 828.525 24.6569C829.011 24.7541 829.41 24.9875 829.721 25.3569C830.032 25.7263 830.188 26.159 830.188 26.6548V29.0319C830.188 29.6736 829.959 30.2229 829.502 30.6798C829.045 31.1368 828.496 31.3652 827.854 31.3652H827.271C827.144 31.3652 827.018 31.3579 826.892 31.3434C826.765 31.3288 826.644 31.2972 826.527 31.2486L825.594 30.9277C825.477 30.8791 825.356 30.8548 825.229 30.8548C825.103 30.8548 824.981 30.8791 824.865 30.9277L823.931 31.2486C823.815 31.2972 823.693 31.3288 823.567 31.3434C823.44 31.3579 823.314 31.3652 823.188 31.3652H822.604ZM822.604 30.1986H823.188C823.256 30.1986 823.321 30.1937 823.384 30.184C823.448 30.1743 823.508 30.1597 823.567 30.1402C823.849 30.0527 824.123 29.9604 824.391 29.8632C824.658 29.7659 824.938 29.7173 825.229 29.7173C825.521 29.7173 825.803 29.7635 826.075 29.8559C826.347 29.9482 826.619 30.043 826.892 30.1402C826.95 30.1597 827.011 30.1743 827.074 30.184C827.137 30.1937 827.203 30.1986 827.271 30.1986H827.854C828.175 30.1986 828.45 30.0843 828.678 29.8559C828.907 29.6274 829.021 29.3527 829.021 29.0319V26.6548C829.021 26.4409 828.953 26.2562 828.817 26.1007C828.681 25.9451 828.51 25.843 828.306 25.7944C827.801 25.6875 827.293 25.617 826.782 25.5829C826.272 25.5489 825.754 25.5319 825.229 25.5319C824.704 25.5319 824.189 25.5513 823.683 25.5902C823.178 25.6291 822.667 25.6972 822.152 25.7944C821.948 25.8333 821.778 25.9329 821.642 26.0934C821.506 26.2538 821.438 26.4409 821.438 26.6548V29.0319C821.438 29.3527 821.552 29.6274 821.78 29.8559C822.009 30.0843 822.283 30.1986 822.604 30.1986ZM818.812 29.0319V26.6986H819.688V29.0319H818.812ZM830.771 29.0319V26.6986H831.646V29.0319H830.771Z" fill="white"/>
</g>
<path d="M844.104 24.5922L841.737 30.8652H840.792L838.425 24.5922H839.298L841.269 30.0012L843.24 24.5922H844.104ZM848.134 30.8652L846.64 28.3002H845.65V30.8652H844.831V24.5922H846.856C847.33 24.5922 847.729 24.6732 848.053 24.8352C848.383 24.9972 848.629 25.2162 848.791 25.4922C848.953 25.7682 849.034 26.0832 849.034 26.4372C849.034 26.8692 848.908 27.2502 848.656 27.5802C848.41 27.9102 848.038 28.1292 847.54 28.2372L849.115 30.8652H848.134ZM845.65 27.6432H846.856C847.3 27.6432 847.633 27.5352 847.855 27.3192C848.077 27.0972 848.188 26.8032 848.188 26.4372C848.188 26.0652 848.077 25.7772 847.855 25.5732C847.639 25.3692 847.306 25.2672 846.856 25.2672H845.65V27.6432Z" fill="white"/>
</g>
<defs>
<filter id="filter0_d_40000066_44958" x="0.947106" y="0.2557" width="180.981" height="55.22" filterUnits="userSpaceOnUse" color-interpolation-filters="sRGB">
<feFlood flood-opacity="0" result="BackgroundImageFix"/>
<feColorMatrix in="SourceAlpha" type="matrix" values="0 0 0 0 0 0 0 0 0 0 0 0 0 0 0 0 0 0 127 0" result="hardAlpha"/>
<feOffset/>
<feGaussianBlur stdDeviation="5.10067"/>
<feComposite in2="hardAlpha" operator="out"/>
<feColorMatrix type="matrix" values="0 0 0 0 0.156863 0 0 0 0 0.235294 0 0 0 0 0.494118 0 0 0 0.05 0"/>
<feBlend mode="normal" in2="BackgroundImageFix" result="effect1_dropShadow_40000066_44958"/>
<feBlend mode="normal" in="SourceGraphic" in2="effect1_dropShadow_40000066_44958" result="shape"/>
</filter>
<filter id="filter1_d_40000066_44958" x="173.525" y="0.2557" width="188.403" height="55.22" filterUnits="userSpaceOnUse" color-interpolation-filters="sRGB">
<feFlood flood-opacity="0" result="BackgroundImageFix"/>
<feColorMatrix in="SourceAlpha" type="matrix" values="0 0 0 0 0 0 0 0 0 0 0 0 0 0 0 0 0 0 127 0" result="hardAlpha"/>
<feOffset/>
<feGaussianBlur stdDeviation="5.10067"/>
<feComposite in2="hardAlpha" operator="out"/>
<feColorMatrix type="matrix" values="0 0 0 0 0.156863 0 0 0 0 0.235294 0 0 0 0 0.494118 0 0 0 0.05 0"/>
<feBlend mode="normal" in2="BackgroundImageFix" result="effect1_dropShadow_40000066_44958"/>
<feBlend mode="normal" in="SourceGraphic" in2="effect1_dropShadow_40000066_44958" result="shape"/>
</filter>
<filter id="filter2_d_40000066_44958" x="353.525" y="0.2557" width="175.403" height="55.22" filterUnits="userSpaceOnUse" color-interpolation-filters="sRGB">
<feFlood flood-opacity="0" result="BackgroundImageFix"/>
<feColorMatrix in="SourceAlpha" type="matrix" values="0 0 0 0 0 0 0 0 0 0 0 0 0 0 0 0 0 0 127 0" result="hardAlpha"/>
<feOffset/>
<feGaussianBlur stdDeviation="5.10067"/>
<feComposite in2="hardAlpha" operator="out"/>
<feColorMatrix type="matrix" values="0 0 0 0 0.156863 0 0 0 0 0.235294 0 0 0 0 0.494118 0 0 0 0.05 0"/>
<feBlend mode="normal" in2="BackgroundImageFix" result="effect1_dropShadow_40000066_44958"/>
<feBlend mode="normal" in="SourceGraphic" in2="effect1_dropShadow_40000066_44958" result="shape"/>
</filter>
<filter id="filter3_d_40000066_44958" x="520.525" y="0.2557" width="188.403" height="55.22" filterUnits="userSpaceOnUse" color-interpolation-filters="sRGB">
<feFlood flood-opacity="0" result="BackgroundImageFix"/>
<feColorMatrix in="SourceAlpha" type="matrix" values="0 0 0 0 0 0 0 0 0 0 0 0 0 0 0 0 0 0 127 0" result="hardAlpha"/>
<feOffset/>
<feGaussianBlur stdDeviation="5.10067"/>
<feComposite in2="hardAlpha" operator="out"/>
<feColorMatrix type="matrix" values="0 0 0 0 0.156863 0 0 0 0 0.235294 0 0 0 0 0.494118 0 0 0 0.05 0"/>
<feBlend mode="normal" in2="BackgroundImageFix" result="effect1_dropShadow_40000066_44958"/>
<feBlend mode="normal" in="SourceGraphic" in2="effect1_dropShadow_40000066_44958" result="shape"/>
</filter>
<filter id="filter4_d_40000066_44958" x="700.525" y="0.2557" width="174.403" height="55.22" filterUnits="userSpaceOnUse" color-interpolation-filters="sRGB">
<feFlood flood-opacity="0" result="BackgroundImageFix"/>
<feColorMatrix in="SourceAlpha" type="matrix" values="0 0 0 0 0 0 0 0 0 0 0 0 0 0 0 0 0 0 127 0" result="hardAlpha"/>
<feOffset/>
<feGaussianBlur stdDeviation="5.10067"/>
<feComposite in2="hardAlpha" operator="out"/>
<feColorMatrix type="matrix" values="0 0 0 0 0.156863 0 0 0 0 0.235294 0 0 0 0 0.494118 0 0 0 0.05 0"/>
<feBlend mode="normal" in2="BackgroundImageFix" result="effect1_dropShadow_40000066_44958"/>
<feBlend mode="normal" in="SourceGraphic" in2="effect1_dropShadow_40000066_44958" result="shape"/>
</filter>
</defs>
</svg>
